<?xml version="1.0" encoding="UTF-8"?>
<svg width="16px" height="16px" viewBox="0 0 16 16" version="1.1" xmlns="http://www.w3.org/2000/svg" xmlns:xlink="http://www.w3.org/1999/xlink">
    <title>31913F45-A72F-48B9-9AA6-4571E9974F55</title>
    <g id="Page-1" stroke="none" stroke-width="1" fill="none" fill-rule="evenodd">
        <g id="HMS_Partner_1" transform="translate(-382.000000, -436.000000)">
            <g id="Group-30" transform="translate(173.000000, 387.000000)">
                <g id="Group-22" transform="translate(24.000000, 24.000000)">
                    <g id="Group-21-Copy-4" transform="translate(148.000000, 1.000000)">
                        <g id="Group-2" transform="translate(37.000000, 22.000000)">
                            <g id="airplane-copy" transform="translate(0.000000, 2.000000)">
                                <rect id="Rectangle" transform="translate(8.000000, 8.000000) rotate(-180.000000) translate(-8.000000, -8.000000) " x="1.18423789e-15" y="-1.18423789e-15" width="16" height="16"></rect>
                                <path d="M11.8,14.2466667 L12.8466667,13.2066667 L11.38,6.33333333 L14.3333333,3.39333333 C14.5527717,3.17554487 14.6761906,2.87916829 14.6761906,2.57 C14.6761906,2.26083171 14.5527717,1.96445513 14.3333333,1.74666667 C13.8758141,1.29244409 13.1375192,1.29244409 12.68,1.74666667 L9.70666667,4.66666667 L2.8,3.20666667 L1.75333333,4.24666667 L7.19333333,7.16666667 L4.22,10.1266667 L2.14666667,9.68666667 L1.33333333,10.5 L3.84666667,12.1666667 L5.52,14.6666667 L6.33333333,13.8533333 L5.89333333,11.7933333 L8.86666667,8.83333333 L11.8,14.2466667 Z" id="Path" fill="#111111" fill-rule="nonzero"></path>
                            </g>
                        </g>
                    </g>
                </g>
            </g>
        </g>
    </g>
</svg>