<?xml version="1.0" encoding="UTF-8"?>
<svg width="16px" height="19px" viewBox="0 0 16 19" version="1.1" xmlns="http://www.w3.org/2000/svg" xmlns:xlink="http://www.w3.org/1999/xlink">
    <title>994A31B0-84CD-46A3-B11A-8E906BEC9F66</title>
    <g id="Page-1" stroke="none" stroke-width="1" fill="none" fill-rule="evenodd">
        <g id="HMS_Partner_1" transform="translate(-220.000000, -434.000000)" fill="#FDFDFD" fill-rule="nonzero">
            <g id="Group-30" transform="translate(173.000000, 387.000000)">
                <g id="Group-22" transform="translate(24.000000, 24.000000)">
                    <g id="building-copy" transform="translate(23.000000, 23.000000)">
                        <path d="M4.57142857,5.28571429 L4.57142857,3.85714286 C4.57142857,3.62142857 4.76428571,3.42857143 5,3.42857143 L6.42857143,3.42857143 C6.66428571,3.42857143 6.85714286,3.62142857 6.85714286,3.85714286 L6.85714286,5.28571429 C6.85714286,5.52142857 6.66428571,5.71428571 6.42857143,5.71428571 L5,5.71428571 C4.76428571,5.71428571 4.57142857,5.52142857 4.57142857,5.28571429 Z M9.57142857,5.71428571 L11,5.71428571 C11.2357143,5.71428571 11.4285714,5.52142857 11.4285714,5.28571429 L11.4285714,3.85714286 C11.4285714,3.62142857 11.2357143,3.42857143 11,3.42857143 L9.57142857,3.42857143 C9.33571429,3.42857143 9.14285714,3.62142857 9.14285714,3.85714286 L9.14285714,5.28571429 C9.14285714,5.52142857 9.33571429,5.71428571 9.57142857,5.71428571 Z M5,9.14285714 L6.42857143,9.14285714 C6.66428571,9.14285714 6.85714286,8.95 6.85714286,8.71428571 L6.85714286,7.28571429 C6.85714286,7.05 6.66428571,6.85714286 6.42857143,6.85714286 L5,6.85714286 C4.76428571,6.85714286 4.57142857,7.05 4.57142857,7.28571429 L4.57142857,8.71428571 C4.57142857,8.95 4.76428571,9.14285714 5,9.14285714 Z M9.57142857,9.14285714 L11,9.14285714 C11.2357143,9.14285714 11.4285714,8.95 11.4285714,8.71428571 L11.4285714,7.28571429 C11.4285714,7.05 11.2357143,6.85714286 11,6.85714286 L9.57142857,6.85714286 C9.33571429,6.85714286 9.14285714,7.05 9.14285714,7.28571429 L9.14285714,8.71428571 C9.14285714,8.95 9.33571429,9.14285714 9.57142857,9.14285714 Z M6.85714286,12.1428571 L6.85714286,10.7142857 C6.85714286,10.4785714 6.66428571,10.2857143 6.42857143,10.2857143 L5,10.2857143 C4.76428571,10.2857143 4.57142857,10.4785714 4.57142857,10.7142857 L4.57142857,12.1428571 C4.57142857,12.3785714 4.76428571,12.5714286 5,12.5714286 L6.42857143,12.5714286 C6.66428571,12.5714286 6.85714286,12.3785714 6.85714286,12.1428571 Z M9.57142857,12.5714286 L11,12.5714286 C11.2357143,12.5714286 11.4285714,12.3785714 11.4285714,12.1428571 L11.4285714,10.7142857 C11.4285714,10.4785714 11.2357143,10.2857143 11,10.2857143 L9.57142857,10.2857143 C9.33571429,10.2857143 9.14285714,10.4785714 9.14285714,10.7142857 L9.14285714,12.1428571 C9.14285714,12.3785714 9.33571429,12.5714286 9.57142857,12.5714286 Z M16,17 L16,18.2857143 L0,18.2857143 L0,17 C0,16.7642857 0.192857143,16.5714286 0.428571429,16.5714286 L1.125,16.5714286 L1.125,0.857142857 C1.125,0.382142857 1.50714286,0 1.98214286,0 L14.0178571,0 C14.4928571,0 14.875,0.382142857 14.875,0.857142857 L14.875,16.5714286 L15.5714286,16.5714286 C15.8071429,16.5714286 16,16.7642857 16,17 Z M2.83928571,16.5357143 L6.85714286,16.5357143 L6.85714286,14.1428571 C6.85714286,13.9071429 7.05,13.7142857 7.28571429,13.7142857 L8.71428571,13.7142857 C8.95,13.7142857 9.14285714,13.9071429 9.14285714,14.1428571 L9.14285714,16.5357143 L13.1607143,16.5357143 L13.1607143,1.75 L2.85714286,1.71428571 L2.83928571,16.5357143 Z" id="Shape"></path>
                    </g>
                </g>
            </g>
        </g>
    </g>
</svg>