<?xml version="1.0" encoding="UTF-8"?>
<svg width="16px" height="16px" viewBox="0 0 16 16" version="1.1" xmlns="http://www.w3.org/2000/svg" xmlns:xlink="http://www.w3.org/1999/xlink">
    <title>A296CEDB-E114-4025-9349-671C66217C7B</title>
    <g id="Page-1" stroke="none" stroke-width="1" fill="none" fill-rule="evenodd">
        <g id="HMS_Partner_1" transform="translate(-667.000000, -436.000000)" fill="#000000" fill-rule="nonzero">
            <g id="Group-30" transform="translate(173.000000, 387.000000)">
                <g id="Group-22" transform="translate(24.000000, 24.000000)">
                    <g id="Group-21-Copy-3" transform="translate(444.000000, 0.000000)">
                        <g id="Group-2" transform="translate(26.000000, 23.000000)">
                            <g id="bus-copy" transform="translate(0.000000, 2.000000)">
                                <path d="M15.25,4 L15,4 L15,2.5 C15,1.1 11.9,0 8,0 C4.1,0 1,1.1 1,2.5 L1,4 L0.75,4 C0.3359375,4 0,4.335625 0,4.75 L0,7.25 C0,7.6640625 0.3359375,8 0.75,8 L1,8 L1,13 C1,13.5521875 1.4478125,14 2,14 L2,15 C2,15.5521875 2.4478125,16 3,16 L4,16 C4.5521875,16 5,15.5521875 5,15 L5,14 L11,14 L11,15 C11,15.5521875 11.4478125,16 12,16 L13,16 C13.5521875,16 14,15.5521875 14,15 L14,14 L14.2,14 C14.7,14 15,13.6 15,13.2 L15,8 L15.25,8 C15.6640625,8 16,7.6640625 16,7.25 L16,4.75 C16,4.335625 15.6640625,4 15.25,4 Z M3.5,12.5 C2.9478125,12.5 2.5,12.0521875 2.5,11.5 C2.5,10.9478125 2.9478125,10.5 3.5,10.5 C4.0521875,10.5 4.5,10.9478125 4.5,11.5 C4.5,12.0521875 4.0521875,12.5 3.5,12.5 Z M4,9 C3.4478125,9 3,8.5521875 3,8 L3,4 C3,3.4478125 3.4478125,3 4,3 L12,3 C12.5521875,3 13,3.4478125 13,4 L13,8 C13,8.5521875 12.5521875,9 12,9 L4,9 Z M12.5,12.5 C11.9478125,12.5 11.5,12.0521875 11.5,11.5 C11.5,10.9478125 11.9478125,10.5 12.5,10.5 C13.0521875,10.5 13.5,10.9478125 13.5,11.5 C13.5,12.0521875 13.0521875,12.5 12.5,12.5 Z" id="Shape"></path>
                            </g>
                        </g>
                    </g>
                </g>
            </g>
        </g>
    </g>
</svg>