<?xml version="1.0" encoding="UTF-8"?>
<svg width="94px" height="94px" viewBox="0 0 94 94" version="1.1" xmlns="http://www.w3.org/2000/svg" xmlns:xlink="http://www.w3.org/1999/xlink">
    <title>17DE6750-FC2E-49FF-A9B6-5A8D210C32FC</title>
    <g id="Page-1" stroke="none" stroke-width="1" fill="none" fill-rule="evenodd">
        <g id="HMS_Partner_1" transform="translate(-648.000000, -2134.000000)" fill="#6C00EF" fill-rule="nonzero">
            <g id="Group-19" transform="translate(0.000000, 2032.000000)">
                <g id="Group-16" transform="translate(78.000000, 97.000000)">
                    <g id="Group-14-Copy-6" transform="translate(568.000000, 0.000000)">
                        <g id="clock" transform="translate(2.000000, 5.000000)">
                            <path d="M47.0024478,0 C21.0411958,0 0,21.0411958 0,46.9975522 C0,72.9588042 21.0411958,94 47.0024478,94 C72.9539087,94 94,72.9588042 94,46.9975522 C94,21.0411958 72.9539087,0 47.0024478,0 Z M46.9975522,84.2039477 C26.4508099,84.2039477 9.79115671,67.5491901 9.79115671,46.9975522 C9.79115671,26.4508099 26.4459143,9.79115671 46.9975522,9.79115671 C67.5442946,9.79115671 84.2088433,26.4459143 84.2088433,46.9975522 C84.2088433,67.5442946 67.5442946,84.2039477 46.9975522,84.2039477 Z M51.8980261,43.7175147 L51.8980261,17.6240821 L42.1068694,17.6240821 L42.1068694,48.1969689 L24.7471486,58.2231134 L29.6427269,66.7022551 L49.7880319,55.0654653 C50.9531795,54.3947711 51.8980261,52.7498568 51.8980261,51.4035727 L51.8980261,50.5811156 L72.6552784,30.1861361 C71.6859539,28.8594344 70.6431957,27.5963752 69.4878392,26.4361231 L51.8980261,43.7175147 Z" id="Shape"></path>
                        </g>
                    </g>
                </g>
            </g>
        </g>
    </g>
</svg>