<?xml version="1.0" encoding="UTF-8"?>
<svg width="69px" height="86px" viewBox="0 0 69 86" version="1.1" xmlns="http://www.w3.org/2000/svg" xmlns:xlink="http://www.w3.org/1999/xlink">
    <title>7CCFE432-F2E8-4F79-859D-1A215C656D2B</title>
    <g id="Page-1" stroke="none" stroke-width="1" fill="none" fill-rule="evenodd">
        <g id="HMS_Partner_1" transform="translate(-379.000000, -2135.000000)" fill="#00ADEF" fill-rule="nonzero">
            <g id="Group-19" transform="translate(0.000000, 2032.000000)">
                <g id="Group-16" transform="translate(78.000000, 97.000000)">
                    <g id="Group-14-Copy-5" transform="translate(284.000000, 0.000000)">
                        <g id="file-document" transform="translate(17.000000, 6.000000)">
                            <path d="M38.8125189,30.0999549 L62.531254,30.0999549 L38.8125189,6.44999033 L38.8125189,30.0999549 Z M8.62499461,0 L43.1250162,0 L69,25.7999613 L69,77.4000129 C69,82.1472058 65.1360024,86 60.3750054,86 L8.58182651,86 C3.82082949,86 0,82.1472058 0,77.4000129 L0.043168098,8.5999871 C0.043168098,3.85279422 3.85959884,0 8.62499461,0 Z M47.440101,68.8081958 L47.440101,60.2082087 L8.58454338,60.2082087 L8.58454338,68.8081958 L47.440101,68.8081958 Z M60.3775929,51.6082216 L60.3775929,43.0082345 L8.58454338,43.0082345 L8.58454338,51.6082216 L60.3775929,51.6082216 Z" id="Shape"></path>
                        </g>
                    </g>
                </g>
            </g>
        </g>
    </g>
</svg>