<?xml version="1.0" encoding="UTF-8"?>
<svg width="88px" height="88px" viewBox="0 0 88 88" version="1.1" xmlns="http://www.w3.org/2000/svg" xmlns:xlink="http://www.w3.org/1999/xlink">
    <title>9F0B40B5-B585-4D79-AD93-8E7067327B68</title>
    <g id="Page-1" stroke="none" stroke-width="1" fill="none" fill-rule="evenodd">
        <g id="HMS_Partner_1" transform="translate(-935.000000, -2134.000000)" fill="#44AF1A" fill-rule="nonzero">
            <g id="Group-19" transform="translate(0.000000, 2032.000000)">
                <g id="Group-16" transform="translate(78.000000, 97.000000)">
                    <g id="Group-14-Copy-7" transform="translate(852.000000, 0.000000)">
                        <g id="Group" transform="translate(5.000000, 5.000000)">
                            <path d="M4.4,52.7956 L4.4,79.1956 C4.4,84.0488 8.3468,87.9956 13.2,87.9956 L39.6,87.9956 L39.6,52.7956 L4.4,52.7956 Z" id="Path"></path>
                            <path d="M48.4,52.7956 L48.4,87.9956 L74.8,87.9956 C79.6532,87.9956 83.6,84.0488 83.6,79.1956 L83.6,52.7956 L48.4,52.7956 Z" id="Path"></path>
                            <path d="M79.2,26.3956 L65.4984,26.3956 C67.4828,25.366 69.3616,24.1032 70.9324,22.5368 C76.076,17.3932 76.076,9.02 70.9324,3.8632 C65.9428,-1.1132 57.2616,-1.1176 52.2676,3.8676 C45.0692,11.0704 44.0968,24.6268 44.0088,26.1492 C44,26.2328 44.044,26.3076 44.044,26.3956 L43.956,26.3956 C43.956,26.312 44,26.2328 43.9956,26.1448 C43.9076,24.6224 42.9352,11.066 35.7324,3.8588 C30.7428,-1.1176 22.0528,-1.1176 17.0632,3.8632 C11.9196,9.0112 11.9196,17.3844 17.0632,22.5324 C18.634,24.0988 20.5172,25.3616 22.5016,26.3912 L8.8,26.3912 C3.9468,26.3912 0,30.338 0,35.1912 L0,48.3912 L39.6,48.3912 L39.6,30.7912 L48.4,30.7912 L48.4,48.3912 L88,48.3912 L88,35.1912 C88,30.3424 84.0532,26.3956 79.2,26.3956 Z M23.2892,16.3108 C21.5732,14.5948 21.5732,11.8052 23.2892,10.0848 C24.1164,9.2576 25.2208,8.8 26.4,8.8 C27.5792,8.8 28.6836,9.2576 29.5152,10.0848 C32.1112,12.6808 33.6248,17.336 34.4344,21.2212 C30.558,20.4116 25.8676,18.8892 23.2892,16.3108 Z M53.5656,21.23 C54.3752,17.3448 55.8888,12.6852 58.4848,10.0892 C59.3164,9.2576 60.4252,8.8 61.6,8.8 C62.7748,8.8 63.8836,9.2576 64.7064,10.0804 C66.4224,11.8008 66.4268,14.5948 64.7064,16.3108 C62.1104,18.9112 57.4508,20.4248 53.5656,21.23 Z" id="Shape"></path>
                        </g>
                    </g>
                </g>
            </g>
        </g>
    </g>
</svg>