<?xml version="1.0" encoding="UTF-8"?>
<svg width="12px" height="20px" viewBox="0 0 12 20" version="1.1" xmlns="http://www.w3.org/2000/svg" xmlns:xlink="http://www.w3.org/1999/xlink">
    <title>349B6A6F-2745-4A30-B4E3-E19741AAF4C9</title>
    <g id="Page-1" stroke="none" stroke-width="1" fill="none" fill-rule="evenodd">
        <g id="HMS_Partner_1" transform="translate(-505.000000, -434.000000)" fill="#333333" fill-rule="nonzero">
            <g id="Group-30" transform="translate(173.000000, 387.000000)">
                <g id="Group-22" transform="translate(24.000000, 24.000000)">
                    <g id="Group-21-Copy" transform="translate(296.000000, 0.000000)">
                        <g id="walking-copy" transform="translate(12.000000, 23.000000)">
                            <path d="M7.77570093,3.58878505 C8.76635514,3.58878505 9.57009346,2.78504673 9.57009346,1.79439252 C9.57009346,0.803738318 8.76635514,0 7.77570093,0 C6.78504673,0 5.98130841,0.803738318 5.98130841,1.79439252 C5.98130841,2.78504673 6.78504673,3.58878505 7.77570093,3.58878505 Z M11.3084112,9.16261682 L10.4373832,8.72149533 L10.0747664,7.62242991 C9.52523364,5.95514019 7.99252336,4.78878505 6.25420561,4.78501949 C4.90841121,4.78130841 4.16448598,5.16261682 2.76635514,5.7271028 C1.9588785,6.05233645 1.29719626,6.66915888 0.908411215,7.45420561 L0.657943925,7.96261682 C0.36635514,8.55327103 0.601869159,9.27102804 1.18878505,9.56635514 C1.77196262,9.86168224 2.48224299,9.62242991 2.77757009,9.0317757 L3.02803738,8.52336449 C3.1588785,8.26168224 3.37570093,8.05607477 3.64485981,7.94766355 L4.64672897,7.54392523 L4.07850467,9.81308411 C3.88411215,10.5906542 4.09345794,11.4168224 4.63551402,12.011215 L6.87476636,14.4560748 C7.14392523,14.7514019 7.33457944,15.1065421 7.4317757,15.4915888 L8.11588785,18.2317757 C8.27663551,18.871028 8.9271028,19.2635514 9.56635514,19.1028037 C10.2056075,18.9420561 10.5981308,18.2915888 10.4373832,17.6523364 L9.60747664,14.3252336 C9.51028037,13.9401869 9.31962617,13.5813084 9.05046729,13.2897196 L7.34953271,11.4317757 L7.99252336,8.8635514 L8.19813084,9.48037383 C8.39626168,10.082243 8.82242991,10.5794393 9.38317757,10.8635514 L10.2542056,11.3046729 C10.8373832,11.6 11.5476636,11.3607477 11.8429907,10.7700935 C12.1308411,10.1831776 11.8953271,9.45794393 11.3084112,9.16261682 L11.3084112,9.16261682 Z M2.75140187,14.4224299 C2.6317757,14.7252336 2.45233645,14.9981308 2.22056075,15.2261682 L0.351401869,17.0990654 C-0.11588785,17.5663551 -0.11588785,18.3252336 0.351401869,18.7925234 C0.818691589,19.2598131 1.57383178,19.2598131 2.0411215,18.7925234 L4.26168224,16.5719626 C4.48971963,16.3439252 4.66915888,16.071028 4.79252336,15.7682243 L5.29719626,14.5046729 C3.22990654,12.2504673 3.85046729,12.9420561 3.52523364,12.4971963 L2.75140187,14.4224299 L2.75140187,14.4224299 Z" id="Shape"></path>
                        </g>
                    </g>
                </g>
            </g>
        </g>
    </g>
</svg>