<svg width="32" height="32" viewBox="0 0 32 32" fill="none" xmlns="http://www.w3.org/2000/svg">
<path d="M15.9997 16C10.6244 16 6.17783 19.976 5.44038 25.1474C5.32157 25.9805 6.01524 26.6667 6.85682 26.6667H25.1425C25.9841 26.6667 26.6778 25.9805 26.559 25.1474C25.8215 19.976 21.3749 16 15.9997 16Z" fill="#757575"/>
<path d="M2.10024 24.1155C2.67992 20.6451 5.69822 18 9.33301 18C12.9678 18 15.9861 20.6451 16.5658 24.1155C16.6066 24.3599 16.4042 24.6667 15.9997 24.6667H2.66634C2.26178 24.6667 2.0594 24.3599 2.10024 24.1155Z" stroke="#757575" stroke-width="1.33333"/>
<path d="M15.4342 24.1155C16.0139 20.6451 19.0322 18 22.667 18C26.3018 18 29.3201 20.6451 29.8998 24.1155C29.9406 24.3599 29.7382 24.6667 29.3337 24.6667H16.0003C15.5958 24.6667 15.3934 24.3599 15.4342 24.1155Z" stroke="#757575" stroke-width="1.33333"/>
<circle cx="16.0003" cy="12" r="5.33333" fill="#757575"/>
<circle cx="9.33301" cy="14.6666" r="3.33333" stroke="#757575" stroke-width="1.33333"/>
<circle cx="22.667" cy="14.6666" r="3.33333" stroke="#757575" stroke-width="1.33333"/>
</svg>
