<svg width="64" height="64" viewBox="0 0 64 64" fill="none" xmlns="http://www.w3.org/2000/svg">
<circle cx="32" cy="32" r="32" fill="#FFB822"/>
<path d="M24 21.3333C24 20.597 24.597 20 25.3333 20H38.6667C39.403 20 40 20.597 40 21.3333V48H24V21.3333Z" fill="white"/>
<path d="M35.9807 25.6988C35.8563 25.3117 35.1722 25.2149 34.4569 25.1181C34.0526 25.0536 33.6172 24.9891 33.4928 24.8923C33.3684 24.7955 33.1818 24.3762 32.9952 23.9891C32.7153 23.3117 32.4043 22.6665 32 22.6665C31.5957 22.6665 31.3158 23.3117 31.0048 23.9891C30.8493 24.3439 30.6316 24.7633 30.5072 24.8601C30.3829 24.9891 29.9164 25.0213 29.5432 25.0859C28.8279 25.1826 28.1437 25.2471 28.0193 25.6665C27.8949 26.0536 28.3925 26.5375 28.9212 27.0536C29.2011 27.3439 29.5432 27.6665 29.5743 27.8278C29.6365 27.9891 29.5432 28.4407 29.4499 28.8601C29.3255 29.602 29.17 30.2794 29.5121 30.5375C29.6054 30.602 29.6987 30.6342 29.792 30.6342C30.1341 30.6342 30.6005 30.3762 31.067 30.1181C31.4091 29.9246 31.8134 29.6988 31.9689 29.6988C32.1244 29.6988 32.5287 29.9246 32.8708 30.1181C33.3373 30.3762 33.8349 30.6665 34.1459 30.6665C34.2392 30.6665 34.3325 30.6342 34.3947 30.5697C34.7368 30.3117 34.6124 29.6342 34.4569 28.8923C34.3947 28.5052 34.3014 28.0213 34.3636 27.8601C34.4258 27.6988 34.7368 27.3762 35.0478 27.0859C35.6075 26.5697 36.1051 26.0859 35.9807 25.6988Z" fill="#FFB822"/>
<line x1="18" y1="47.3333" x2="46" y2="47.3333" stroke="white" stroke-width="1.33333" stroke-linecap="round"/>
<path d="M20 33.3333C20 32.597 20.597 32 21.3333 32H25.3333V46.6667H20V33.3333Z" fill="white"/>
<path d="M38.6667 32H42.6667C43.4031 32 44 32.597 44 33.3333V46.6667H38.6667V32Z" fill="white"/>
<rect x="26.6667" y="33.3335" width="4" height="4" fill="#FFB822"/>
<rect x="33.3333" y="33.3335" width="4" height="4" fill="#FFB822"/>
<rect x="26.6667" y="40" width="4" height="4" fill="#FFB822"/>
<rect x="33.3333" y="40" width="4" height="4" fill="#FFB822"/>
</svg>
