<svg width="64" height="64" viewBox="0 0 64 64" fill="none" xmlns="http://www.w3.org/2000/svg">
<circle cx="32" cy="32" r="32" fill="#1976D2"/>
<path d="M26.8115 27.6795L21.9395 28.4915C20.6757 28.7022 20.2571 30.3093 21.2576 31.1097L25.3043 34.347C25.7706 34.7201 25.9674 35.3367 25.8033 35.9109L24.0364 42.0951C23.6823 43.3346 24.9704 44.4037 26.1234 43.8272L31.3375 41.2201C31.7546 41.0116 32.2455 41.0116 32.6626 41.2201L37.8768 43.8272C39.0297 44.4037 40.3179 43.3346 39.9638 42.0951L38.1969 35.9109C38.0328 35.3367 38.2295 34.7201 38.6959 34.347L42.7425 31.1097C43.7431 30.3093 43.3245 28.7022 42.0606 28.4915L37.1887 27.6795C36.7211 27.6016 36.3191 27.3047 36.1071 26.8808L33.3252 21.3168C32.7792 20.2249 31.221 20.2249 30.675 21.3168L27.893 26.8808C27.681 27.3047 27.279 27.6016 26.8115 27.6795Z" fill="white"/>
</svg>
