<svg width="138" height="85" viewBox="0 0 138 85" fill="none" xmlns="http://www.w3.org/2000/svg">
<path d="M65.057 77.9103H10.0269C8.35005 77.9103 6.99072 76.551 6.99072 74.8742V66.2888M103.641 35.498V8.58503C103.641 6.90822 102.282 5.54889 100.605 5.54889H55.063M6.99072 44.5888V8.58503C6.99072 6.90821 8.35005 5.54889 10.0269 5.54889H39.8823" stroke="#4FC3F7" stroke-width="1.4" stroke-linecap="round"/>
<path d="M67.9117 46.031H25.7132C25.1543 46.031 24.7012 45.5778 24.7012 45.0189V18.7057C24.7012 18.1467 25.1543 17.6936 25.7132 17.6936H89.4723C90.0312 17.6936 90.4843 18.1467 90.4843 18.7057V32.5063" stroke="#BDBDBD" stroke-width="1.4" stroke-linecap="round"/>
<circle cx="91.4963" cy="61.2116" r="21.5621" stroke="#4FC3F7" stroke-width="3.43"/>
<circle cx="127.424" cy="53.6214" r="3.85422" stroke="#FF6A39" stroke-width="1.4"/>
<circle cx="47.4727" cy="5.04296" r="3.85422" stroke="#FF6A39" stroke-width="1.4"/>
<path fill-rule="evenodd" clip-rule="evenodd" d="M7.56279 54.2935V54.818H8.62578H9.2H12.9264C13.313 54.818 13.6264 55.1314 13.6264 55.518C13.6264 55.9046 13.313 56.218 12.9264 56.218H9.2H8.62578H7.56279V61.581C7.56279 61.9676 7.24939 62.281 6.86279 62.281C6.47619 62.281 6.16279 61.9676 6.16279 61.581V56.218H0.8C0.413401 56.218 0.1 55.9046 0.1 55.518C0.1 55.1314 0.413401 54.818 0.8 54.818H6.16279V54.2943C6.16279 54.2941 6.16279 54.2938 6.16279 54.2935L6.16279 52.9887L6.16279 49.4553C6.16279 49.0687 6.47619 48.7553 6.86279 48.7553C7.24939 48.7553 7.56279 49.0687 7.56279 49.4553V52.9887V54.2935Z" fill="#FF6A39"/>
<path d="M137.038 27.814L119.833 38.9466" stroke="#FF6A39" stroke-width="1.4" stroke-linecap="round"/>
<path d="M117.304 21.7417L114.773 33.1584" stroke="#FF6A39" stroke-width="1.4" stroke-linecap="round"/>
<path d="M81.376 61.2118L89.135 70.3202L102.629 52.1033" stroke="#4FC3F7" stroke-width="3.43" stroke-linecap="round" stroke-linejoin="round"/>
<path d="M38.9616 31.8701L36.0646 31.0703L36.6422 29.3907L39.4771 30.5548L39.2549 27.4267H41.1566L40.9256 30.6171L43.6805 29.4796L44.2581 31.1769L41.3255 31.9767L43.2717 34.3317L41.7343 35.3803L40.108 32.7676L38.4729 35.2915L36.9354 34.2873L38.9616 31.8701ZM55.4298 31.8701L52.5327 31.0703L53.1103 29.3907L55.9452 30.5548L55.723 27.4267H57.6248L57.3937 30.6171L60.1486 29.4796L60.7263 31.1769L57.7936 31.9767L59.7398 34.3317L58.2024 35.3803L56.5762 32.7676L54.941 35.2915L53.4036 34.2873L55.4298 31.8701ZM71.8979 31.8701L69.0009 31.0703L69.5785 29.3907L72.4134 30.5548L72.1912 27.4267H74.093L73.8619 30.6171L76.6168 29.4796L77.1944 31.1769L74.2618 31.9767L76.208 34.3317L74.6706 35.3803L73.0443 32.7676L71.4092 35.2915L69.8718 34.2873L71.8979 31.8701Z" fill="#4FC3F7"/>
</svg>
