<svg width="24" height="24" viewBox="0 0 24 24" fill="none" xmlns="http://www.w3.org/2000/svg">
<rect x="3.5" y="6.5" width="17" height="3" rx="1.5" stroke="#757575"/>
<path d="M5.9541 9.5H18.045V18.8182C18.045 19.747 17.292 20.5 16.3632 20.5H7.63592C6.70708 20.5 5.9541 19.747 5.9541 18.8182V9.5Z" stroke="#757575"/>
<path d="M15.438 6.5H8.61838C8.78975 5.92915 9.115 5.28679 9.57905 4.7403C10.1995 4.00966 11.0225 3.5 12 3.5C12.9836 3.5 13.8567 4.01575 14.4995 4.74683C14.9912 5.30601 15.311 5.94913 15.438 6.5Z" stroke="#757575"/>
<line x1="9.125" y1="12.5" x2="9.125" y2="17.125" stroke="#757575" stroke-linecap="round"/>
<line x1="11.9375" y1="12.5" x2="11.9375" y2="17.125" stroke="#757575" stroke-linecap="round"/>
<line x1="14.75" y1="12.5" x2="14.75" y2="17.125" stroke="#757575" stroke-linecap="round"/>
</svg>
