<svg width="100" height="83" viewBox="0 0 100 83" fill="none" xmlns="http://www.w3.org/2000/svg">
<rect x="20" y="31" width="49" height="44" rx="2" fill="#F5F5F5" stroke="#EBE0DB" stroke-linecap="round" stroke-dasharray="3 3"/>
<rect x="42" y="15" width="36" height="48" rx="2" fill="#EBE0DB"/>
<rect x="25.5" y="22.5" width="35" height="47" rx="1.5" fill="white" stroke="#BDBDBD"/>
<path d="M20.0019 22.5623C19.8139 21.8106 19.7404 21.1967 19.7814 20.7207C19.8223 20.2446 20.0142 19.6776 20.3568 19.0196L21.2513 17.4151C21.6195 16.6761 21.7117 15.9639 21.5281 15.2785C21.3511 14.6182 21.04 14.1488 20.5947 13.8705C20.1478 13.5858 19.5941 13.532 18.9338 13.7089C18.2924 13.8808 17.8222 14.1887 17.5233 14.6328C17.2244 15.0769 17.1516 15.585 17.305 16.1573L15.5599 16.6249C15.2995 15.6028 15.4412 14.6852 15.985 13.8722C16.5334 13.0513 17.3798 12.4875 18.5244 12.1808C19.7129 11.8623 20.7233 11.9353 21.5554 12.3998C22.3922 12.8564 22.9597 13.6412 23.258 14.7543C23.5529 15.8548 23.3341 17.076 22.6019 18.4181L21.8466 19.7123C21.5241 20.3447 21.4908 21.1388 21.747 22.0947L20.0019 22.5623ZM20.7276 25.5727C20.6518 25.2897 20.6735 25.0312 20.7928 24.797C20.9166 24.5549 21.1483 24.3883 21.4879 24.2973C21.8275 24.2063 22.1114 24.2347 22.3398 24.3825C22.5664 24.524 22.7176 24.7362 22.7934 25.0192C22.8693 25.3022 22.8444 25.5616 22.7189 25.7974C22.5917 26.027 22.3583 26.1872 22.0187 26.2782C21.6791 26.3692 21.3968 26.3471 21.1719 26.2119C20.9516 26.0688 20.8035 25.8557 20.7276 25.5727Z" fill="#F44336"/>
<circle cx="77.5" cy="69.5" r="2" stroke="#38C5F4"/>
<circle cx="13.5" cy="37.5" r="2" stroke="#38C5F4"/>
<circle cx="89.5" cy="26.5" r="2" stroke="#38C5F4"/>
<circle cx="37" cy="31" r="2" fill="#BDBDBD"/>
<circle cx="48" cy="31" r="2" fill="#BDBDBD"/>
<path d="M48 41.5C48 38.4624 45.5376 36 42.5 36C39.4624 36 37 38.4624 37 41.5" stroke="#BDBDBD" stroke-linecap="round"/>
<line x1="31.5" y1="53.5" x2="54.5" y2="53.5" stroke="#BDBDBD" stroke-linecap="round"/>
<line x1="31.5" y1="57.5" x2="54.5" y2="57.5" stroke="#BDBDBD" stroke-linecap="round"/>
<line x1="31.5" y1="61.5" x2="54.5" y2="61.5" stroke="#BDBDBD" stroke-linecap="round"/>
<line x1="31.5" y1="65.5" x2="54.5" y2="65.5" stroke="#BDBDBD" stroke-linecap="round"/>
</svg>
