<svg width="24" height="24" viewBox="0 0 24 24" fill="none" xmlns="http://www.w3.org/2000/svg">
<path d="M19.8153 16.2336L19.0939 13.628C18.7939 12.5459 18.4872 11.4246 17.1389 11.4246H14.7692V10.2019H15.9186C16.5759 10.2019 17.1119 9.68206 17.1119 9.04456C17.1119 8.40706 16.5759 7.88725 15.9186 7.88725H14.7692V7.7859C14.7692 7.1909 14.4658 6.66456 14.0007 6.34417C14.4658 6.02379 14.7692 5.49744 14.7692 4.90244C14.7692 3.92821 13.9501 3.13379 12.9456 3.13379C11.9411 3.13379 11.122 3.92821 11.122 4.90244C11.122 5.49744 11.4254 6.02379 11.8905 6.34417C11.4254 6.66456 11.122 7.1909 11.122 7.7859V8.15533C8.54673 8.92033 6.77032 11.2415 6.77032 13.8765C6.77032 17.1817 9.54111 19.869 12.949 19.869C13.9265 19.869 14.8602 19.6532 15.7265 19.2315C16.4479 18.8784 17.1018 18.3815 17.631 17.7865C17.8602 17.9271 18.1299 18.0088 18.413 18.0088C18.5377 18.0088 18.6658 17.9924 18.7872 17.9598C19.1613 17.8617 19.4748 17.6296 19.667 17.3026C19.8625 16.9757 19.9164 16.5965 19.8153 16.2336ZM11.7995 4.89917C11.7995 4.28456 12.3153 3.78437 12.949 3.78437C13.5827 3.78437 14.0984 4.28456 14.0984 4.89917C14.0984 5.51379 13.5827 6.01398 12.949 6.01398C12.3153 6.01398 11.7995 5.51379 11.7995 4.89917ZM12.949 14.2426H16.2591L16.7209 15.9099C15.9591 17.2405 14.5265 18.0611 12.9523 18.0611C10.5726 18.0611 8.63774 16.1846 8.63774 13.8765C8.63774 12.2353 9.62201 10.7642 11.1288 10.0842V12.474C11.1254 13.4482 11.9411 14.2426 12.949 14.2426ZM12.949 19.2151C9.9119 19.2151 7.44448 16.8221 7.44448 13.8765C7.44448 11.5946 8.93774 9.58071 11.1254 8.8386V9.37475C9.22426 10.0973 7.96021 11.879 7.96021 13.8798C7.96021 16.5474 10.1984 18.7182 12.949 18.7182C14.5501 18.7182 16.0231 17.9859 16.9535 16.7665L16.9872 16.894L17.0074 16.9692C17.0141 16.9986 17.0243 17.0248 17.0344 17.0509C17.0344 17.0542 17.0377 17.0607 17.0377 17.064C17.0479 17.0901 17.058 17.1196 17.0714 17.1457C17.0714 17.1457 17.0714 17.149 17.0748 17.149C17.0984 17.2046 17.1288 17.2601 17.1591 17.3124C17.1591 17.3124 17.1591 17.3124 17.1591 17.3157C16.1108 18.5253 14.5905 19.2151 12.949 19.2151ZM19.0838 16.9757C18.9793 17.1523 18.8108 17.2765 18.6119 17.3288C18.5479 17.3451 18.4804 17.3549 18.413 17.3549C18.1771 17.3549 17.9613 17.2503 17.8164 17.0836C17.8097 17.0771 17.8063 17.0705 17.7995 17.064C17.7894 17.0509 17.7793 17.0378 17.7726 17.028C17.7692 17.0248 17.7658 17.0215 17.7658 17.0182C17.7557 17.0051 17.7456 16.9888 17.7389 16.9757L17.7355 16.9724C17.7254 16.9561 17.7153 16.9365 17.7085 16.9201V16.9169C17.7018 16.9005 17.695 16.8842 17.6883 16.8678C17.6883 16.8646 17.6849 16.8613 17.6849 16.8548C17.6782 16.8351 17.6714 16.8188 17.6681 16.7992L16.849 13.8373C16.8085 13.6934 16.6771 13.5953 16.522 13.5953H12.949C12.3153 13.5953 11.7995 13.0951 11.7995 12.4805V7.78264C11.7995 7.16802 12.3153 6.66783 12.949 6.66783C13.5827 6.66783 14.0984 7.16802 14.0984 7.78264V8.2109C14.0984 8.39071 14.2501 8.53783 14.4355 8.53783H15.922C16.2085 8.53783 16.4411 8.7634 16.4411 9.04129C16.4411 9.31917 16.2085 9.54475 15.922 9.54475H14.4355C14.2501 9.54475 14.0984 9.69187 14.0984 9.87167V11.7482C14.0984 11.928 14.2501 12.0751 14.4355 12.0751H17.1422C17.9344 12.0751 18.1332 12.6636 18.4434 13.7948L19.1647 16.4003C19.2186 16.5965 19.1883 16.7992 19.0838 16.9757Z" fill="#757575"/>
<path d="M12.9482 20C9.46617 20 6.6347 17.2538 6.6347 13.8767C6.6347 12.556 7.06279 11.2973 7.87178 10.2348C8.66055 9.20173 9.73583 8.44981 10.9898 8.05423V7.78289C10.9898 7.22712 11.2426 6.70077 11.674 6.34115C11.2426 5.98154 10.9898 5.45519 10.9898 4.89942C10.9898 3.85327 11.8695 3 12.9482 3C14.0268 3 14.9066 3.85327 14.9066 4.89942C14.9066 5.45519 14.6538 5.98154 14.2223 6.34115C14.6471 6.69423 14.8999 7.21077 14.9066 7.75346H15.9212C16.6527 7.75346 17.2493 8.33212 17.2493 9.04154C17.2493 9.75096 16.6527 10.3296 15.9212 10.3296H14.9066V11.2908H17.1414C18.5909 11.2908 18.928 12.5135 19.2246 13.5923L19.9459 16.1979C20.0538 16.5935 19.9999 17.0087 19.7875 17.365C19.5752 17.7213 19.2347 17.9763 18.8235 18.0842C18.6886 18.1202 18.5538 18.1365 18.4156 18.1365C18.1527 18.1365 17.8931 18.0712 17.6605 17.9502C17.1347 18.5223 16.4875 19.0029 15.7898 19.3462C14.8999 19.781 13.9459 20 12.9482 20ZM12.9482 3.26154C12.0179 3.26154 11.2594 3.99712 11.2594 4.89942C11.2594 5.42904 11.5257 5.92596 11.9707 6.23327L12.1257 6.34115L11.9707 6.44904C11.5257 6.75635 11.2594 7.25654 11.2594 7.78289V8.24712L11.165 8.27654C8.61673 9.03827 6.90437 11.2875 6.90437 13.8767C6.90437 17.11 9.61448 19.7385 12.9482 19.7385C13.9021 19.7385 14.819 19.5292 15.665 19.114C16.3662 18.7708 17.01 18.2804 17.5291 17.6985L17.6066 17.6135L17.7044 17.6756C17.9167 17.8063 18.1628 17.8783 18.4156 17.8783C18.5302 17.8783 18.6448 17.8652 18.7561 17.8358C19.0965 17.7475 19.3796 17.535 19.5549 17.2408C19.7302 16.9433 19.7774 16.6 19.6864 16.2731L18.965 13.6675C18.665 12.5854 18.3853 11.5621 17.1414 11.5621H14.637V10.0779H15.9212C16.5044 10.0779 16.9796 9.61692 16.9796 9.05135C16.9796 8.48577 16.5044 8.02481 15.9212 8.02481H14.637V7.79269C14.637 7.26308 14.3707 6.76615 13.9257 6.45885L13.7707 6.35096L13.9257 6.24308C14.3707 5.93577 14.637 5.43558 14.637 4.90923C14.637 3.99712 13.8785 3.26154 12.9482 3.26154ZM12.9482 19.3462C9.83695 19.3462 7.30886 16.8942 7.30886 13.8767C7.30886 11.5556 8.82572 9.47962 11.0808 8.71462L11.2594 8.6525V9.46L11.1752 9.49269C9.30437 10.2054 8.09763 11.925 8.09763 13.8735C8.09763 16.4692 10.2752 18.5812 12.9516 18.5812C14.4819 18.5812 15.9381 17.8717 16.8482 16.6817L17.0134 16.4627L17.1414 16.9237C17.1482 16.9465 17.1549 16.9694 17.165 16.9988L17.1684 17.0119C17.1785 17.0381 17.1886 17.061 17.1987 17.0838L17.2021 17.0904C17.2223 17.1394 17.2493 17.1885 17.2796 17.2375L17.283 17.2408L17.3302 17.3192L17.2695 17.3912C16.1909 18.6367 14.6167 19.3462 12.9482 19.3462ZM10.9898 9.02846C8.94032 9.80327 7.57852 11.7288 7.57852 13.8767C7.57852 16.7471 9.98864 19.0846 12.9482 19.0846C14.5089 19.0846 15.9785 18.434 16.9965 17.2963C16.9796 17.2637 16.9628 17.231 16.9493 17.195L16.9459 17.1885C16.9358 17.1623 16.9223 17.1329 16.9122 17.1002L16.9055 17.0838C16.9021 17.0708 16.8954 17.0577 16.892 17.0446C16.4437 17.5677 15.8841 18.0025 15.2605 18.3098C14.5493 18.6596 13.7504 18.8427 12.9482 18.8427C10.1235 18.8427 7.82459 16.6131 7.82459 13.8735C7.82459 12.8665 8.1347 11.8988 8.71785 11.0685C9.28077 10.2675 10.0662 9.64962 10.9898 9.28019V9.02846ZM12.9482 18.1921C10.4943 18.1921 8.49875 16.2567 8.49875 13.8767C8.49875 12.2062 9.50661 10.6696 11.0673 9.96673L11.2594 9.88173V12.4742C11.2594 13.3765 12.0179 14.1121 12.9482 14.1121H16.3594L16.8617 15.9298L16.8347 15.9756C16.0493 17.3421 14.5594 18.1921 12.9482 18.1921ZM10.9898 10.2969C9.6347 10.9933 8.76841 12.3762 8.76841 13.8767C8.76841 16.1129 10.6426 17.9306 12.9482 17.9306C14.4448 17.9306 15.8302 17.1525 16.5752 15.8938L16.1538 14.3737H12.9482C11.8695 14.3737 10.9898 13.5204 10.9898 12.4742V10.2969ZM18.4122 17.4827C18.1426 17.4827 17.8864 17.3683 17.7111 17.1656C17.7044 17.159 17.6976 17.1492 17.6909 17.1427C17.6808 17.1296 17.6673 17.1133 17.6572 17.1002C17.6538 17.0969 17.6538 17.0937 17.6504 17.0904L17.6471 17.0871C17.637 17.0708 17.6235 17.0544 17.6134 17.0348L17.61 17.0315C17.5965 17.0087 17.5864 16.989 17.5763 16.9694L17.5729 16.9629C17.5628 16.9433 17.5561 16.9269 17.5493 16.9073L17.5426 16.8942C17.5325 16.8681 17.5257 16.8485 17.5223 16.8288L16.7032 13.8669C16.6796 13.7819 16.5987 13.7231 16.5077 13.7231H12.9482C12.2403 13.7231 11.6639 13.164 11.6639 12.4775V7.78289C11.6639 7.09635 12.2403 6.53731 12.9482 6.53731C13.6561 6.53731 14.2325 7.09635 14.2325 7.78289V8.21115C14.2325 8.31904 14.3235 8.40731 14.4347 8.40731H15.9212C16.2819 8.40731 16.5752 8.69173 16.5752 9.04154C16.5752 9.39135 16.2819 9.67577 15.9212 9.67577H14.4347C14.3235 9.67577 14.2325 9.76404 14.2325 9.87192V11.7485C14.2325 11.8563 14.3235 11.9446 14.4347 11.9446H17.1414C18.0752 11.9446 18.2841 12.7063 18.574 13.759L19.2954 16.3646C19.3594 16.5935 19.3257 16.8321 19.2044 17.0348C19.083 17.2408 18.8841 17.3879 18.6516 17.4467C18.5707 17.4729 18.4931 17.4827 18.4122 17.4827ZM17.8257 16.8615C17.8325 16.8746 17.8392 16.891 17.8493 16.904L17.8527 16.9106C17.8594 16.9204 17.8662 16.9335 17.8729 16.9433L17.8796 16.9498C17.8864 16.9596 17.8965 16.9727 17.9032 16.9825C17.9066 16.989 17.9134 16.9923 17.9167 16.9988C18.0414 17.1427 18.2201 17.2244 18.4122 17.2244C18.4662 17.2244 18.5235 17.2179 18.5774 17.2048C18.7426 17.1623 18.8808 17.0577 18.9684 16.9138C19.0561 16.77 19.0796 16.6 19.0325 16.4398L18.3111 13.8342C17.9875 12.6573 17.8021 12.2127 17.1381 12.2127H14.4313C14.1718 12.2127 13.9594 12.0067 13.9594 11.755V9.87846C13.9594 9.62673 14.1718 9.42077 14.4313 9.42077H15.9179C16.1302 9.42077 16.3021 9.25404 16.3021 9.04808C16.3021 8.84212 16.1302 8.67538 15.9179 8.67538H14.4313C14.1718 8.67538 13.9594 8.46942 13.9594 8.21769V7.78942C13.9594 7.24673 13.5044 6.80538 12.9448 6.80538C12.3853 6.80538 11.9302 7.24673 11.9302 7.78942V12.4808C11.9302 13.0235 12.3853 13.4648 12.9448 13.4648H16.5111C16.7235 13.4648 16.9122 13.6054 16.9662 13.8048L17.7853 16.7667C17.7886 16.7798 17.792 16.7929 17.7987 16.8125L17.8021 16.8223C17.8055 16.8354 17.8122 16.8485 17.819 16.8615H17.8257ZM12.9482 6.145C12.6044 6.145 12.2841 6.01423 12.0414 5.77885C11.7987 5.54346 11.6639 5.22962 11.6639 4.89942C11.6639 4.21288 12.2403 3.65385 12.9482 3.65385C13.6561 3.65385 14.2325 4.21288 14.2325 4.89942C14.2325 5.58596 13.6561 6.145 12.9482 6.145ZM12.9482 3.91538C12.3886 3.91538 11.9336 4.35673 11.9336 4.89942C11.9336 5.16096 12.0381 5.40942 12.2302 5.59577C12.4223 5.78212 12.6752 5.88346 12.9482 5.88346C13.5077 5.88346 13.9628 5.44212 13.9628 4.89942C13.9628 4.35673 13.5077 3.91538 12.9482 3.91538Z" fill="#757575"/>
<path d="M8.35231 6.7334H8.32871C7.92422 6.7334 7.57029 7.02109 7.5231 7.4134C7.46579 7.88416 7.84332 8.28628 8.3186 8.28628H8.3422C8.73321 8.28628 9.0804 8.0182 9.14444 7.64224C9.22534 7.15513 8.84107 6.7334 8.35231 6.7334Z" fill="#757575"/>
<path d="M8.34114 8.41711H8.31754C8.05125 8.41711 7.79507 8.30595 7.61979 8.11307C7.44114 7.92018 7.36024 7.65865 7.39058 7.40038C7.44788 6.94596 7.85238 6.60596 8.33103 6.60596H8.35462C8.63103 6.60596 8.89058 6.72365 9.06586 6.92634C9.24451 7.12903 9.31867 7.40038 9.27485 7.66519C9.20069 8.09999 8.80968 8.41711 8.34114 8.41711ZM8.33103 6.86423C7.98721 6.86423 7.69732 7.10615 7.65687 7.4298C7.63327 7.61615 7.69058 7.79922 7.81867 7.93653C7.94339 8.07384 8.12541 8.1523 8.31754 8.1523H8.34114C8.67148 8.1523 8.95799 7.92345 9.00856 7.61615C9.04226 7.42326 8.98833 7.23692 8.86024 7.0898C8.73215 6.94596 8.55013 6.86096 8.35462 6.86096H8.33103V6.86423Z" fill="#757575"/>
<path d="M6.49458 3.49072H6.4575C5.79683 3.49072 5.22379 3.96149 5.14627 4.59572C5.05188 5.36399 5.66537 6.01457 6.43728 6.01457H6.47436C7.11143 6.01457 7.67436 5.57649 7.77548 4.96515C7.91031 4.17399 7.28672 3.49072 6.49458 3.49072Z" fill="#757575"/>
<path d="M6.47381 6.14525H6.43674C6.0255 6.14525 5.63449 5.97525 5.36145 5.67775C5.08842 5.38025 4.96033 4.9814 5.01089 4.58256C5.09853 3.88621 5.71876 3.35986 6.45696 3.35986H6.49404C6.91539 3.35986 7.31651 3.53967 7.58954 3.85025C7.86258 4.16409 7.98056 4.57602 7.90977 4.98794C7.79853 5.64832 7.18168 6.14525 6.47381 6.14525ZM6.45696 3.6214C5.85359 3.6214 5.34797 4.0464 5.27718 4.61198C5.23673 4.94217 5.33786 5.25929 5.5637 5.50448C5.78617 5.7464 6.10303 5.88371 6.43674 5.88371H6.47381C7.05022 5.88371 7.55247 5.48159 7.64348 4.94544C7.70078 4.61198 7.6064 4.27525 7.38393 4.02025C7.16145 3.76525 6.83786 3.6214 6.49404 3.6214H6.45696Z" fill="#757575"/>
</svg>
