<svg width="38" height="10" viewBox="0 0 38 10" fill="none" xmlns="http://www.w3.org/2000/svg">
<path d="M7.23633 7.98633C6.98633 8.3418 6.59375 8.61914 6.05859 8.81836C5.52734 9.01758 4.93164 9.11719 4.27148 9.11719C3.60352 9.11719 3.00977 8.95703 2.49023 8.63672C1.9707 8.31641 1.56836 7.86328 1.2832 7.27734C0.998047 6.69141 0.853516 6.01953 0.849609 5.26172V4.18359C0.849609 3 1.14844 2.06641 1.74609 1.38281C2.34375 0.695313 3.14648 0.351562 4.1543 0.351562C5.0332 0.351562 5.74023 0.576172 6.27539 1.02539C6.81055 1.4707 7.12891 2.08594 7.23047 2.87109H6.50977C6.4043 2.24609 6.14844 1.77344 5.74219 1.45312C5.33984 1.12891 4.8125 0.966797 4.16016 0.966797C3.36328 0.966797 2.73242 1.25 2.26758 1.81641C1.80273 2.38281 1.57031 3.18164 1.57031 4.21289V5.2207C1.57031 5.86914 1.67969 6.44336 1.89844 6.94336C2.12109 7.43945 2.4375 7.82422 2.84766 8.09766C3.26172 8.37109 3.73633 8.50781 4.27148 8.50781C4.89258 8.50781 5.42578 8.41016 5.87109 8.21484C6.16016 8.08594 6.375 7.93555 6.51562 7.76367V5.56055H4.22461V4.95117H7.23633V7.98633ZM13.1191 9C13.0488 8.80078 13.0039 8.50586 12.9844 8.11523C12.7383 8.43555 12.4238 8.68359 12.041 8.85938C11.6621 9.03125 11.2598 9.11719 10.834 9.11719C10.2246 9.11719 9.73047 8.94727 9.35156 8.60742C8.97656 8.26758 8.78906 7.83789 8.78906 7.31836C8.78906 6.70117 9.04492 6.21289 9.55664 5.85352C10.0723 5.49414 10.7891 5.31445 11.707 5.31445H12.9785V4.59375C12.9785 4.14062 12.8379 3.78516 12.5566 3.52734C12.2793 3.26562 11.873 3.13477 11.3379 3.13477C10.8496 3.13477 10.4453 3.25977 10.125 3.50977C9.80469 3.75977 9.64453 4.06055 9.64453 4.41211L8.94141 4.40625C8.94141 3.90234 9.17578 3.4668 9.64453 3.09961C10.1133 2.72852 10.6895 2.54297 11.373 2.54297C12.0801 2.54297 12.6367 2.7207 13.043 3.07617C13.4531 3.42773 13.6641 3.91992 13.6758 4.55273V7.55273C13.6758 8.16602 13.7402 8.625 13.8691 8.92969V9H13.1191ZM10.916 8.49609C11.3848 8.49609 11.8027 8.38281 12.1699 8.15625C12.541 7.92969 12.8105 7.62695 12.9785 7.24805V5.85352H11.7246C11.0254 5.86133 10.4785 5.99023 10.084 6.24023C9.68945 6.48633 9.49219 6.82617 9.49219 7.25977C9.49219 7.61523 9.62305 7.91016 9.88477 8.14453C10.1504 8.37891 10.4941 8.49609 10.916 8.49609ZM18.4805 3.25781C18.332 3.23047 18.1738 3.2168 18.0059 3.2168C17.5684 3.2168 17.1973 3.33984 16.8926 3.58594C16.5918 3.82812 16.377 4.18164 16.248 4.64648V9H15.5508V2.66016H16.2363L16.248 3.66797C16.6191 2.91797 17.2148 2.54297 18.0352 2.54297C18.2305 2.54297 18.3848 2.56836 18.498 2.61914L18.4805 3.25781ZM19.1953 5.77148C19.1953 4.78711 19.4141 4.00391 19.8516 3.42188C20.293 2.83594 20.8906 2.54297 21.6445 2.54297C22.5 2.54297 23.1523 2.88086 23.6016 3.55664V0H24.2988V9H23.6426L23.6133 8.15625C23.1641 8.79688 22.5039 9.11719 21.6328 9.11719C20.9023 9.11719 20.3125 8.82422 19.8633 8.23828C19.418 7.64844 19.1953 6.85352 19.1953 5.85352V5.77148ZM19.9043 5.89453C19.9043 6.70312 20.0664 7.3418 20.3906 7.81055C20.7148 8.27539 21.1719 8.50781 21.7617 8.50781C22.625 8.50781 23.2383 8.12695 23.6016 7.36523V4.38867C23.2383 3.56445 22.6289 3.15234 21.7734 3.15234C21.1836 3.15234 20.7246 3.38477 20.3965 3.84961C20.0684 4.31055 19.9043 4.99219 19.9043 5.89453ZM28.5996 9.11719C28.0605 9.11719 27.5723 8.98438 27.1348 8.71875C26.7012 8.45312 26.3633 8.08398 26.1211 7.61133C25.8789 7.13477 25.7578 6.60156 25.7578 6.01172V5.75977C25.7578 5.15039 25.875 4.60156 26.1094 4.11328C26.3477 3.625 26.6777 3.24219 27.0996 2.96484C27.5215 2.68359 27.9785 2.54297 28.4707 2.54297C29.2402 2.54297 29.8496 2.80664 30.2988 3.33398C30.752 3.85742 30.9785 4.57422 30.9785 5.48438V5.87695H26.4551V6.01172C26.4551 6.73047 26.6602 7.33008 27.0703 7.81055C27.4844 8.28711 28.0039 8.52539 28.6289 8.52539C29.0039 8.52539 29.334 8.45703 29.6191 8.32031C29.9082 8.18359 30.1699 7.96484 30.4043 7.66406L30.8438 7.99805C30.3281 8.74414 29.5801 9.11719 28.5996 9.11719ZM28.4707 3.14062C27.9434 3.14062 27.498 3.33398 27.1348 3.7207C26.7754 4.10742 26.5566 4.62695 26.4785 5.2793H30.2812V5.20312C30.2617 4.59375 30.0879 4.09766 29.7598 3.71484C29.4316 3.33203 29.002 3.14062 28.4707 3.14062ZM33.0117 2.66016L33.0352 3.74414C33.2734 3.35352 33.5703 3.05664 33.9258 2.85352C34.2812 2.64648 34.6738 2.54297 35.1035 2.54297C35.7832 2.54297 36.2891 2.73438 36.6211 3.11719C36.9531 3.5 37.1211 4.07422 37.125 4.83984V9H36.4277V4.83398C36.4238 4.26758 36.3027 3.8457 36.0645 3.56836C35.8301 3.29102 35.4531 3.15234 34.9336 3.15234C34.5 3.15234 34.1152 3.28906 33.7793 3.5625C33.4473 3.83203 33.2012 4.19727 33.041 4.6582V9H32.3438V2.66016H33.0117Z" fill="#3F4445"/>
</svg>
