<svg width="24" height="24" viewBox="0 0 24 24" fill="none" xmlns="http://www.w3.org/2000/svg">
<path d="M9.25193 7.93405L9.26398 7.94093L9.27639 7.94714C9.34213 7.98001 9.41298 8.01684 9.48877 8.05625C9.94505 8.29348 10.5807 8.624 11.3615 8.74412C12.2978 8.88817 13.4092 8.73319 14.7405 7.9387C15.2392 7.68949 15.903 7.36582 16.7208 7.3113C17.5221 7.25788 18.5178 7.46174 19.6664 8.37337C20.1452 8.85236 20.7096 9.42502 21.2279 10.6344C21.76 11.876 22.2519 13.8114 22.5 17.0191C22.4998 17.5404 22.491 18.6831 22.1568 19.5743C21.9895 20.0206 21.7638 20.3388 21.4795 20.5073C21.2182 20.6621 20.8236 20.7396 20.1935 20.5371C19.8566 20.3582 19.2557 19.8758 18.5945 19.2886C17.9326 18.7007 17.2649 18.0577 16.8536 17.6464C16.6736 17.4664 16.3795 17.1988 16.0712 16.9721C15.9173 16.8589 15.7493 16.7481 15.5826 16.6635C15.4285 16.5852 15.2198 16.4999 15 16.4999H9C8.77908 16.4999 8.5083 16.6071 8.23337 16.7693C7.93614 16.9447 7.57004 17.2228 7.14645 17.6464C6.38292 18.4099 4.58869 19.8872 3.7319 20.574C3.34721 20.7509 2.84847 20.784 2.44204 20.4508C1.99478 20.084 1.5 19.1547 1.5 16.9999C1.5 14.0931 2.47309 10.709 4.39043 8.31227C4.9268 7.64181 6.69684 6.47399 9.25193 7.93405Z" stroke="#757575"/>
<path d="M5 12.5H9M7 10.5V14.5" stroke="#757575" stroke-linecap="round"/>
<circle cx="16" cy="11" r="1" fill="#757575"/>
<path d="M19.5 12.5C19.5 13.0523 19.0523 13.5 18.5 13.5C17.9477 13.5 17.5 13.0523 17.5 12.5C17.5 11.9477 17.9477 11.5 18.5 11.5C19.0523 11.5 19.5 11.9477 19.5 12.5Z" fill="#757575"/>
<circle cx="16" cy="14" r="1" fill="#757575"/>
<path d="M12.5 8.5C12 8.16667 10.1 7.1 10.5 5.5C11 3.5 12.5 4.5 13.5 4.5C14.3 4.5 15.5 3.16667 16 2.5" stroke="#757575" stroke-linecap="round"/>
</svg>
