<svg width="32" height="32" viewBox="0 0 32 32" fill="none" xmlns="http://www.w3.org/2000/svg">
<circle cx="16" cy="16" r="15.6" fill="#4FC3F7" stroke="#E6F6FE" stroke-width="0.8"/>
<path d="M9.95067 19.4128L9.96907 19.4001L9.98593 19.3854C10.5307 18.9106 10.9742 18.0661 11.2826 17.0553C11.5952 16.031 11.7847 14.7846 11.7847 13.4525C11.7847 11.6764 12.949 10.2073 14.6515 9.63024C14.971 9.52198 15.4402 9.45492 15.9595 9.45187C16.4752 9.44883 17.0107 9.50912 17.459 9.63591C19.1337 10.123 20.3077 11.6645 20.3077 13.4525C20.3077 14.7793 20.4728 16.0249 20.7739 17.0512C21.0707 18.0629 21.5161 18.9174 22.1194 19.3961C22.5598 19.7523 22.8 20.3414 22.8 20.9609C22.8 21.6069 22.2687 22.0805 21.6308 22.0805H10.3693C9.67037 22.0805 9.20005 21.5477 9.20005 20.9609C9.20005 20.3461 9.43577 19.7689 9.95067 19.4128Z" stroke="white" stroke-width="0.8"/>
<path d="M14.7317 22.7999C14.567 23.266 14.1225 23.5999 13.6 23.5999C13.0775 23.5999 12.633 23.266 12.4683 22.7999H14.7317Z" stroke="white" stroke-width="0.8"/>
<path d="M17.1319 9.2H14.8684C15.0332 8.73392 15.4777 8.4 16.0001 8.4C16.5226 8.4 16.9671 8.73392 17.1319 9.2Z" stroke="white" stroke-width="0.8"/>
</svg>
