<svg width="16" height="16" viewBox="0 0 16 16" fill="none" xmlns="http://www.w3.org/2000/svg">
<mask id="path-1-inside-1" fill="white">
<path fill-rule="evenodd" clip-rule="evenodd" d="M13.7841 11.3031C13.6353 11.313 13.4852 11.3181 13.334 11.3181C9.65209 11.3181 6.66732 8.33329 6.66732 4.65139C6.66732 3.44327 6.98868 2.3102 7.55058 1.33301C4.07856 1.56446 1.33398 4.45408 1.33398 7.98472C1.33398 11.6666 4.31875 14.6514 8.00065 14.6514C10.4744 14.6514 12.6335 13.304 13.7841 11.3031Z"/>
</mask>
<path d="M13.7841 11.3031L14.362 11.6354L14.9832 10.555L13.7397 10.6379L13.7841 11.3031ZM7.55058 1.33301L8.12851 1.66533L8.74976 0.58492L7.50623 0.667818L7.55058 1.33301ZM13.7397 10.6379C13.6057 10.6468 13.4704 10.6514 13.334 10.6514V11.9847C13.5 11.9847 13.6649 11.9792 13.8284 11.9683L13.7397 10.6379ZM13.334 10.6514C10.0203 10.6514 7.33398 7.9651 7.33398 4.65139H6.00065C6.00065 8.70148 9.2839 11.9847 13.334 11.9847V10.6514ZM7.33398 4.65139C7.33398 3.56296 7.6232 2.54411 8.12851 1.66533L6.97264 1.00069C6.35416 2.07629 6.00065 3.32357 6.00065 4.65139H7.33398ZM2.00065 7.98472C2.00065 4.80741 4.47075 2.20647 7.59492 1.9982L7.50623 0.667818C3.68637 0.922462 0.667318 4.10075 0.667318 7.98472H2.00065ZM8.00065 13.9847C4.68694 13.9847 2.00065 11.2984 2.00065 7.98472H0.667318C0.667318 12.0348 3.95056 15.3181 8.00065 15.3181V13.9847ZM13.2061 10.9708C12.1696 12.7733 10.2262 13.9847 8.00065 13.9847V15.3181C10.7227 15.3181 13.0974 13.8347 14.362 11.6354L13.2061 10.9708Z" fill="#00ACA0" mask="url(#path-1-inside-1)"/>
<path d="M8.66699 6H11.3337" stroke="#00ACA0" stroke-width="0.666667" stroke-linecap="round"/>
<path d="M12 3H14" stroke="#00ACA0" stroke-width="0.666667" stroke-linecap="round"/>
<path d="M12 8.66699H13.3333" stroke="#00ACA0" stroke-width="0.666667" stroke-linecap="round"/>
<path d="M12.667 8L12.667 9.33333" stroke="#00ACA0" stroke-width="0.666667" stroke-linecap="round"/>
<path d="M13 2L13 4" stroke="#00ACA0" stroke-width="0.666667" stroke-linecap="round"/>
<path d="M10 4.66699L10 7.33366" stroke="#00ACA0" stroke-width="0.666667" stroke-linecap="round"/>
</svg>
