<svg width="200" height="50" viewBox="0 0 200 50" fill="none" xmlns="http://www.w3.org/2000/svg">
<path d="M58.5098 42.0124C58.5098 37.8038 61.6383 34.9733 65.4744 34.9733C67.858 34.9733 69.534 36.0161 70.763 37.5059L69.4223 38.3252C68.5656 37.2452 67.1131 36.463 65.5116 36.463C62.5321 36.463 60.2975 38.7349 60.2975 41.9752C60.2975 45.1781 62.5694 47.5245 65.5116 47.5245C67.1504 47.5245 68.4912 46.7424 69.1615 46.072V43.3159H64.506V41.8262H70.8748V46.7424C69.6085 48.1577 67.7463 49.0888 65.5489 49.0888C61.6383 49.0515 58.5098 46.221 58.5098 42.0124Z" fill="#141414"/>
<path d="M85.2514 48.79L81.7877 43.3896H79.0689V48.79H77.3929V35.2332H82.8306C85.3259 35.2332 87.0764 36.8346 87.0764 39.33C87.0764 41.7881 85.4004 43.1289 83.5382 43.2779L87.1881 48.8272H85.2514V48.79ZM85.3632 39.2928C85.3632 37.7657 84.2458 36.7229 82.6444 36.7229H79.0689V41.8998H82.6444C84.2831 41.8998 85.3632 40.8198 85.3632 39.2928Z" fill="#141414"/>
<path d="M92.5509 42.0124C92.5509 37.99 95.2697 34.9733 99.2921 34.9733C103.314 34.9733 106.033 37.99 106.033 42.0124C106.033 46.0347 103.314 49.0515 99.2921 49.0515C95.2325 49.0515 92.5509 46.0347 92.5509 42.0124ZM104.245 42.0124C104.245 38.8466 102.309 36.5003 99.2548 36.5003C96.2008 36.5003 94.2641 38.8466 94.2641 42.0124C94.2641 45.1781 96.2008 47.5245 99.2548 47.5245C102.309 47.5245 104.245 45.1781 104.245 42.0124Z" fill="#141414"/>
<path d="M111.286 43.5013V35.2332H112.962V43.5013C112.962 45.9967 114.302 47.5609 116.798 47.5609C119.293 47.5609 120.634 45.9967 120.634 43.5013V35.2332H122.31V43.5013C122.31 46.8905 120.448 49.0507 116.761 49.0507C113.148 49.0507 111.286 46.8533 111.286 43.5013Z" fill="#141414"/>
<path d="M129.088 48.79V35.2332H134.526C137.244 35.2332 138.771 37.0954 138.771 39.33C138.771 41.5646 137.207 43.4268 134.526 43.4268H130.764V48.79H129.088ZM137.021 39.2928C137.021 37.7657 135.941 36.7229 134.302 36.7229H130.727V41.8998H134.302C135.941 41.8998 137.021 40.8198 137.021 39.2928Z" fill="#141414"/>
<path d="M10.9497 0H0V10.9497H10.9497V0Z" fill="#BE2B2F"/>
<path d="M25.6231 24.5438L16.1259 0H22.0849L28.9005 18.8827L35.6789 0H41.638L32.178 24.5438H25.6231Z" fill="#141414"/>
<path d="M61.1912 24.5438L49.4966 8.52888V24.5438H44.2825V0H49.6456L61.005 15.419V0H66.2192V24.5438H61.1912Z" fill="#141414"/>
<path d="M68.8634 4.58101H76.0515V24.5438H81.3029V0H68.8634V4.58101Z" fill="#141414"/>
<path d="M104.88 24.5438L100.076 15.8287H96.2394V24.5438H91.0253V0H102.496C107.599 0 110.727 3.35196 110.727 7.89573C110.727 12.2533 108.009 14.5624 105.364 15.1956L110.876 24.5438H104.88ZM105.401 7.89573C105.401 5.84731 103.8 4.58101 101.714 4.58101H96.2394V11.2104H101.714C103.837 11.2104 105.401 9.98139 105.401 7.89573Z" fill="#141414"/>
<path d="M131.733 24.5438L130.206 20.3725H119.666L118.102 24.5438H112.143L121.714 0H128.269L137.729 24.5438H131.733ZM124.992 5.21416L121.156 15.7915H128.828L124.992 5.21416Z" fill="#141414"/>
<path d="M143.24 24.5438L133.743 0H139.702L146.518 18.8827L153.296 0H159.255L149.795 24.5438H143.24Z" fill="#141414"/>
<path d="M161.751 24.5438V0H179.107V4.58101H166.966V9.75793H178.846V14.3389H166.966V19.8883H179.107V24.5066H161.751V24.5438Z" fill="#141414"/>
<path d="M184.395 24.5438V0H189.609V19.9628H200V24.581H184.395V24.5438Z" fill="#141414"/>
<path d="M10.9497 13.5934H0V24.5431H10.9497V13.5934Z" fill="#00A79C"/>
<path d="M88.4169 0H83.8359V4.58101H88.4169V0Z" fill="#00A79C"/>
</svg>
