<svg width="98" height="24" viewBox="0 0 98 24" fill="none" xmlns="http://www.w3.org/2000/svg">
<path d="M28.6068 20.5402C28.6068 18.4825 30.1363 17.0986 32.0119 17.0986C33.1773 17.0986 33.9967 17.6085 34.5976 18.3369L33.9421 18.7375C33.5233 18.2094 32.8131 17.827 32.0301 17.827C30.5734 17.827 29.4808 18.9378 29.4808 20.522C29.4808 22.088 30.5916 23.2352 32.0301 23.2352C32.8313 23.2352 33.4869 22.8528 33.8146 22.525V21.1775H31.5385V20.4492H34.6523V22.8528C34.0331 23.5448 33.1227 24 32.0483 24C30.1363 23.9818 28.6068 22.5979 28.6068 20.5402Z" fill="white"/>
<path d="M41.6812 23.8543L39.9878 21.2139H38.6585V23.8543H37.8391V17.2261H40.4976C41.7176 17.2261 42.5735 18.0091 42.5735 19.2291C42.5735 20.4309 41.7541 21.0865 40.8436 21.1593L42.6281 23.8725H41.6812V23.8543ZM41.7359 19.2109C41.7359 18.4643 41.1896 17.9544 40.4066 17.9544H38.6585V20.4856H40.4066C41.2078 20.4856 41.7359 19.9575 41.7359 19.2109Z" fill="white"/>
<path d="M45.2504 20.5402C45.2504 18.5736 46.5797 17.0986 48.5463 17.0986C50.5129 17.0986 51.8422 18.5736 51.8422 20.5402C51.8422 22.5068 50.5129 23.9818 48.5463 23.9818C46.5614 23.9818 45.2504 22.5068 45.2504 20.5402ZM50.9681 20.5402C50.9681 18.9924 50.0212 17.8452 48.5281 17.8452C47.0349 17.8452 46.088 18.9924 46.088 20.5402C46.088 22.088 47.0349 23.2352 48.5281 23.2352C50.0212 23.2352 50.9681 22.088 50.9681 20.5402Z" fill="white"/>
<path d="M54.4096 21.2686V17.2261H55.229V21.2686C55.229 22.4886 55.8846 23.2534 57.1046 23.2534C58.3246 23.2534 58.9802 22.4886 58.9802 21.2686V17.2261H59.7996V21.2686C59.7996 22.9256 58.8891 23.9818 57.0864 23.9818C55.3201 23.9818 54.4096 22.9074 54.4096 21.2686Z" fill="white"/>
<path d="M63.1139 23.8543V17.2261H65.7725C67.1017 17.2261 67.8483 18.1365 67.8483 19.2291C67.8483 20.3217 67.0835 21.2321 65.7725 21.2321H63.9333V23.8543H63.1139ZM66.9925 19.2109C66.9925 18.4643 66.4644 17.9544 65.6632 17.9544H63.9151V20.4856H65.6632C66.4644 20.4856 66.9925 19.9575 66.9925 19.2109Z" fill="white"/>
<path d="M5.35392 0H0.000366211V5.35356H5.35392V0Z" fill="white"/>
<path d="M12.5278 12L7.8844 0H10.7979L14.1302 9.23215L17.4443 0H20.3578L15.7326 12H12.5278Z" fill="white"/>
<path d="M29.9179 12L24.2001 4.16995V12H21.6508V0H24.273L29.8268 7.53868V0H32.3761V12H29.9179Z" fill="white"/>
<path d="M33.669 2.23975H37.1834V12H39.7509V0H33.669V2.23975Z" fill="white"/>
<path d="M51.2773 12L48.9283 7.73898H47.0527V12H44.5034V0H50.1119C52.6066 0 54.1362 1.63884 54.1362 3.86039C54.1362 5.99088 52.8069 7.11987 51.514 7.42943L54.209 12H51.2773ZM51.5322 3.86039C51.5322 2.85887 50.7492 2.23975 49.7295 2.23975H47.0527V5.48102H49.7295C50.7674 5.48102 51.5322 4.88011 51.5322 3.86039Z" fill="white"/>
<path d="M64.4064 12L63.6598 9.96053H58.5065L57.7417 12H54.8282L59.5081 0H62.7129L67.3381 12H64.4064ZM61.1105 2.54931L59.2349 7.72078H62.986L61.1105 2.54931Z" fill="white"/>
<path d="M70.0328 12L65.3894 0H68.3029L71.6352 9.23215L74.9493 0H77.8628L73.2376 12H70.0328Z" fill="white"/>
<path d="M79.0831 12V0H87.5687V2.23975H81.6324V4.77086H87.4412V7.01061H81.6324V9.72381H87.5687V11.9818H79.0831V12Z" fill="white"/>
<path d="M90.1544 12V0H92.7037V9.76023H97.7841V12.0182H90.1544V12Z" fill="white"/>
<path d="M5.35356 6.64648H0V12H5.35356V6.64648Z" fill="white"/>
<path d="M43.2288 0H40.9891V2.23975H43.2288V0Z" fill="white"/>
</svg>
