<svg width="24" height="24" viewBox="0 0 24 24" fill="none" xmlns="http://www.w3.org/2000/svg">
<path fill-rule="evenodd" clip-rule="evenodd" d="M4.5 9.53603C4.5 5.37005 7.85017 2 11.9916 2C16.133 2 19.4832 5.38698 19.5 9.53603C19.5 12.0253 18.1364 14.3962 16.8737 16.4455C15.6953 18.3422 14.298 20.1204 12.7155 21.6953C12.3116 22.1016 11.6717 22.1016 11.2845 21.6953C9.48317 19.8325 7.93434 17.7327 6.63805 15.4802C5.57744 13.6682 4.5 11.7037 4.5 9.53603ZM12 13C14.2091 13 16 11.2091 16 9C16 6.79086 14.2091 5 12 5C9.79086 5 8 6.79086 8 9C8 11.2091 9.79086 13 12 13Z" fill="#757575"/>
<circle cx="12" cy="9" r="4" fill="white"/>
</svg>
