<svg width="24" height="24" viewBox="0 0 24 24" fill="none" xmlns="http://www.w3.org/2000/svg">
<path d="M6.5 4C6.5 3.72386 6.72386 3.5 7 3.5H17C17.2761 3.5 17.5 3.72386 17.5 4V23.5H6.5V4Z" stroke="white"/>
<path d="M14.9856 7.27419C14.8923 6.98387 14.3791 6.91129 13.8427 6.83871C13.5394 6.79032 13.2129 6.74194 13.1196 6.66935C13.0263 6.59677 12.8863 6.28226 12.7464 5.99194C12.5365 5.48387 12.3032 5 12 5C11.6968 5 11.4869 5.48387 11.2536 5.99194C11.137 6.25806 10.9737 6.57258 10.8804 6.64516C10.7871 6.74194 10.4373 6.76613 10.1574 6.81452C9.62091 6.8871 9.10777 6.93548 9.01447 7.25C8.92117 7.54032 9.29437 7.90323 9.69088 8.29032C9.90081 8.50806 10.1574 8.75 10.1807 8.87097C10.2273 8.99194 10.1574 9.33065 10.0874 9.64516C9.9941 10.2016 9.87748 10.7097 10.1341 10.9032C10.204 10.9516 10.274 10.9758 10.344 10.9758C10.6005 10.9758 10.9504 10.7823 11.3003 10.5887C11.5568 10.4435 11.8601 10.2742 11.9767 10.2742C12.0933 10.2742 12.3965 10.4435 12.6531 10.5887C13.003 10.7823 13.3762 11 13.6094 11C13.6794 11 13.7494 10.9758 13.796 10.9274C14.0526 10.7339 13.9593 10.2258 13.8427 9.66935C13.796 9.37903 13.726 9.01613 13.7727 8.89516C13.8193 8.77419 14.0526 8.53226 14.2858 8.31452C14.7057 7.92742 15.0789 7.56452 14.9856 7.27419Z" fill="white"/>
<line x1="1.5" y1="23.5" x2="22.5" y2="23.5" stroke="white" stroke-linecap="round"/>
<path d="M3.5 13C3.5 12.7239 3.72386 12.5 4 12.5H6.5V22.5H3.5V13Z" stroke="white"/>
<path d="M17.5 12.5H20C20.2761 12.5 20.5 12.7239 20.5 13V22.5H17.5V12.5Z" stroke="white"/>
<rect x="8" y="13" width="3" height="3" fill="white"/>
<rect x="13" y="13" width="3" height="3" fill="white"/>
<rect x="8" y="18" width="3" height="3" fill="white"/>
<rect x="13" y="18" width="3" height="3" fill="white"/>
</svg>
