<svg width="24" height="24" viewBox="0 0 24 24" fill="none" xmlns="http://www.w3.org/2000/svg">
<circle cx="12" cy="12" r="3.5" stroke="white"/>
<path d="M6.09742 20.0502L6.39081 19.6453C5.60599 19.0766 4.92623 18.3839 4.35275 17.6055C4.27575 17.4977 4.26138 17.3607 4.31672 17.2341L5.03029 15.7346L5.12909 15.5269L5.03576 15.3168C4.92672 15.0713 4.8306 14.8242 4.72966 14.5644L4.64668 14.3509L4.4308 14.2743L2.85487 13.7152L2.8549 13.7151L2.84589 13.7121C2.72521 13.6718 2.64154 13.5711 2.62436 13.445L2.62441 13.445L2.62342 13.4384C2.53989 12.8812 2.5 12.434 2.5 11.9928C2.5 11.5514 2.53991 11.1032 2.61 10.5554C2.62828 10.4351 2.71852 10.3256 2.83157 10.2879L2.8316 10.288L2.84054 10.2848L4.41647 9.7257L4.65116 9.64243L4.72611 9.40495C4.80166 9.16552 4.90457 8.932 5.01694 8.69306L5.11759 8.47902L5.01596 8.26545L4.30239 6.76588C4.24713 6.63953 4.26138 6.50274 4.33807 6.39501C4.92403 5.60467 5.60367 4.92492 6.37754 4.35393C6.48509 4.27702 6.62161 4.26271 6.74774 4.31794L8.24622 5.03202L8.4541 5.13108L8.66451 5.0375C8.92671 4.92088 9.16223 4.81658 9.39317 4.73954L9.62473 4.6623L9.70625 4.43221L10.265 2.85515L10.2651 2.85518L10.2681 2.84618C10.3084 2.72505 10.4092 2.64157 10.5347 2.62444L10.5347 2.62451L10.5431 2.62321C11.6105 2.45888 12.3755 2.45903 13.4273 2.62306L13.4272 2.62315L13.4367 2.62444C13.5622 2.64157 13.6629 2.72505 13.7033 2.84618L13.7032 2.8462L13.7055 2.85266L14.2499 4.41539L14.3324 4.65212L14.5714 4.72766C14.8106 4.80325 15.0439 4.90622 15.2827 5.01866L15.497 5.11957L15.7108 5.01768L17.2093 4.3036C17.336 4.24812 17.4732 4.26281 17.5809 4.34065C18.3656 4.90932 19.0452 5.60191 19.6186 6.38017C19.6956 6.48797 19.71 6.62497 19.6546 6.75151L18.9411 8.25111L18.8423 8.45875L18.9356 8.6689C19.0521 8.93128 19.1564 9.167 19.2334 9.39816L19.3105 9.62974L19.5405 9.71136L21.1165 10.2705L21.1164 10.2706L21.1255 10.2736C21.2461 10.3138 21.3298 10.4146 21.347 10.5406L21.3469 10.5406L21.3479 10.5472C21.4304 11.0973 21.472 11.5515 21.5 12.0078C21.4991 12.4452 21.459 12.9022 21.3769 13.4366L21.3768 13.4366L21.3761 13.4419C21.3587 13.5633 21.268 13.6741 21.1541 13.7121L21.1541 13.712L21.1451 13.7152L19.5692 14.2743L19.3345 14.3576L19.2596 14.5951C19.184 14.8345 19.0811 15.068 18.9687 15.3069L18.8681 15.521L18.9697 15.7346L19.6833 17.2341C19.7389 17.3613 19.7241 17.499 19.6461 17.607L20.0516 17.8996M6.09742 20.0502L6.3903 19.6449C6.49809 19.7228 6.63533 19.7376 6.76207 19.6821L8.26055 18.968L8.47438 18.8661L8.68867 18.967C8.92744 19.0794 9.16074 19.1824 9.39995 19.258L9.63741 19.333L9.72058 19.5678L10.2793 21.1449L10.2825 21.1538L10.2824 21.1538C10.3227 21.2749 10.4235 21.3584 10.549 21.3756L10.5575 21.3767L10.5575 21.3768C11.0975 21.4599 11.5585 21.5 12 21.5C12.4415 21.5 12.9025 21.4599 13.4425 21.3768L13.451 21.3755L13.451 21.3756C13.5765 21.3584 13.6773 21.2749 13.7176 21.1538L13.7206 21.1448L13.7207 21.1449L14.2794 19.5678L14.3609 19.3377L14.5925 19.2605C14.8234 19.1834 15.059 19.0791 15.3212 18.9625L15.5316 18.8689L15.7394 18.968L17.2379 19.6821C17.364 19.7373 17.5006 19.723 17.6081 19.6461C18.3859 19.0722 19.0781 18.392 19.6465 17.6065L20.0516 17.8996M6.09742 20.0502C5.26648 19.448 4.55014 18.7168 3.94842 17.8996L9.24928 19.7348C8.97708 19.6487 8.7192 19.5341 8.47564 19.4194L6.97135 20.1362C6.68481 20.2652 6.3553 20.2366 6.09742 20.0502ZM20.0516 17.8996C20.2378 17.6416 20.2665 17.3118 20.1375 17.0251L17.0287 20.1362C17.3152 20.2652 17.6447 20.2366 17.9026 20.0502C18.7192 19.448 19.4499 18.7312 20.0516 17.8996Z" stroke="white"/>
</svg>
