<svg width="24" height="24" viewBox="0 0 24 24" fill="none" xmlns="http://www.w3.org/2000/svg">
<rect x="4.5" y="2.5" width="15" height="19" stroke="#757575"/>
<line x1="3.5" y1="2.5" x2="20.5" y2="2.5" stroke="#757575" stroke-linecap="round"/>
<line x1="3.5" y1="21.5" x2="20.5" y2="21.5" stroke="#757575" stroke-linecap="round"/>
<line x1="4.5" y1="19.5" x2="19.5" y2="19.5" stroke="#757575" stroke-linecap="round"/>
<path d="M11 8V7C11 5.89543 10.1046 5 9 5V5C7.89543 5 7 5.89543 7 7V19" stroke="#757575"/>
<path d="M9.5 9C9.5 8.17157 10.1716 7.5 11 7.5C11.8284 7.5 12.5 8.17157 12.5 9V9.5H9.5V9Z" stroke="#757575"/>
<path d="M11 10.5V12" stroke="#757575" stroke-width="0.5" stroke-linecap="round"/>
<path d="M12 10.5L13 12M10 10.5L9 12" stroke="#757575" stroke-width="0.5" stroke-linecap="round"/>
</svg>
