<svg width="16" height="16" viewBox="0 0 16 16" fill="none" xmlns="http://www.w3.org/2000/svg">
<path d="M3.66634 2.33301C3.66634 2.15959 3.66749 1.94359 3.70154 1.77338C3.70322 1.76495 3.70494 1.75694 3.70666 1.74934C3.71184 1.75483 3.71719 1.76058 3.72269 1.76658C3.82383 1.87691 3.9382 2.02884 4.06633 2.19968L4.0728 2.2083C4.19299 2.36857 4.3261 2.54605 4.45187 2.68325C4.51597 2.75318 4.5884 2.82415 4.66595 2.87983C4.73649 2.93047 4.85354 2.99967 4.99967 2.99967C5.15547 2.99967 5.27242 2.9223 5.3429 2.86159C5.41561 2.79894 5.47694 2.7212 5.52689 2.65068C5.59193 2.55885 5.66416 2.43931 5.73242 2.32633C5.76418 2.27376 5.79509 2.22262 5.82401 2.17634C5.92591 2.0133 6.02248 1.87652 6.12114 1.7818C6.21865 1.68819 6.28595 1.66634 6.33301 1.66634C6.39057 1.66634 6.48483 1.69737 6.62374 1.80492C6.75828 1.90907 6.89697 2.05516 7.04048 2.21918C7.08375 2.26863 7.12903 2.32165 7.17478 2.37521C7.26969 2.48635 7.3666 2.59982 7.45172 2.68864C7.51693 2.75669 7.58997 2.82643 7.66693 2.88099C7.73679 2.93051 7.85372 2.99967 7.99967 2.99967C8.14563 2.99967 8.26256 2.93051 8.33242 2.88099C8.40938 2.82643 8.48242 2.75669 8.54763 2.68864C8.63275 2.59982 8.72966 2.48635 8.82457 2.37521C8.87032 2.32165 8.9156 2.26863 8.95887 2.21918C9.10238 2.05516 9.24107 1.90907 9.37561 1.80492C9.51452 1.69737 9.60877 1.66634 9.66634 1.66634C9.7134 1.66634 9.78069 1.68819 9.87821 1.7818C9.97687 1.87652 10.0734 2.0133 10.1753 2.17634C10.2043 2.22262 10.2352 2.27376 10.2669 2.32633C10.3352 2.43931 10.4074 2.55885 10.4725 2.65068C10.5224 2.7212 10.5837 2.79894 10.6565 2.86159C10.7269 2.9223 10.8439 2.99967 10.9997 2.99967C11.1453 2.99967 11.2624 2.93091 11.3329 2.88079C11.4107 2.8255 11.4838 2.75491 11.5488 2.6851C11.6781 2.54616 11.8153 2.36598 11.9389 2.20364L11.9404 2.20161C12.0706 2.03063 12.1868 1.87813 12.289 1.76709C12.2915 1.76444 12.2939 1.76183 12.2963 1.75928C12.2971 1.76324 12.2979 1.7673 12.2987 1.77146C12.3319 1.94276 12.333 2.15977 12.333 2.33301V13.6663C12.333 13.8398 12.3319 14.0558 12.2978 14.226C12.2961 14.2344 12.2944 14.2424 12.2927 14.25C12.2875 14.2445 12.2822 14.2388 12.2766 14.2328C12.1755 14.1224 12.0611 13.9705 11.933 13.7997L11.9265 13.7911C11.8064 13.6308 11.6732 13.4533 11.5475 13.3161C11.4834 13.2462 11.4109 13.1752 11.3334 13.1195C11.2629 13.0689 11.1458 12.9997 10.9997 12.9997C10.8439 12.9997 10.7269 13.077 10.6565 13.1378C10.5837 13.2004 10.5224 13.2782 10.4725 13.3487C10.4074 13.4405 10.3352 13.56 10.2669 13.673C10.2352 13.7256 10.2043 13.7767 10.1753 13.823C10.0734 13.986 9.97687 14.1228 9.87821 14.2175C9.78069 14.3112 9.7134 14.333 9.66634 14.333C9.60877 14.333 9.51452 14.302 9.37561 14.1944C9.24107 14.0903 9.10238 13.9442 8.95887 13.7802C8.9156 13.7307 8.87031 13.6777 8.82457 13.6241C8.72966 13.513 8.63275 13.3995 8.54763 13.3107C8.48242 13.2427 8.40938 13.1729 8.33242 13.1184C8.26256 13.0688 8.14563 12.9997 7.99967 12.9997C7.85372 12.9997 7.73679 13.0688 7.66693 13.1184C7.58997 13.1729 7.51693 13.2427 7.45172 13.3107C7.3666 13.3995 7.26969 13.513 7.17478 13.6241C7.12903 13.6777 7.08375 13.7307 7.04048 13.7802C6.89697 13.9442 6.75828 14.0903 6.62374 14.1944C6.48483 14.302 6.39057 14.333 6.33301 14.333C6.28595 14.333 6.21865 14.3112 6.12114 14.2175C6.02248 14.1228 5.92591 13.986 5.82401 13.823C5.79508 13.7767 5.76418 13.7256 5.73242 13.673C5.66416 13.56 5.59193 13.4405 5.52689 13.3487C5.47694 13.2782 5.41561 13.2004 5.3429 13.1378C5.27242 13.077 5.15547 12.9997 4.99967 12.9997C4.85354 12.9997 4.73649 13.0689 4.66595 13.1195C4.5884 13.1752 4.51598 13.2462 4.45187 13.3161C4.3261 13.4533 4.193 13.6308 4.07282 13.791L4.06634 13.7997C3.93821 13.9705 3.82384 14.1224 3.72271 14.2328C3.7172 14.2388 3.71185 14.2445 3.70666 14.25C3.70494 14.2424 3.70322 14.2344 3.70153 14.226C3.66749 14.0558 3.66634 13.8398 3.66634 13.6663V2.33301ZM3.59759 1.65239C3.59758 1.6523 3.59869 1.65282 3.601 1.65421C3.59876 1.65317 3.59761 1.65247 3.59759 1.65239ZM12.4159 1.65126C12.4159 1.65136 12.4146 1.65215 12.4121 1.65333C12.4147 1.65174 12.4159 1.65115 12.4159 1.65126ZM12.4017 14.347C12.4017 14.347 12.4006 14.3465 12.3983 14.3451C12.4006 14.3462 12.4017 14.3469 12.4017 14.347ZM3.59761 14.347C3.59762 14.3469 3.59878 14.3462 3.60101 14.3451C3.59871 14.3465 3.59759 14.3471 3.59761 14.347Z" stroke="#00ACA0" stroke-width="0.666667"/>
<line x1="5.66634" y1="4.99967" x2="10.333" y2="4.99967" stroke="#00ACA0" stroke-width="0.666667" stroke-linecap="round"/>
<line x1="5.66634" y1="6.99967" x2="10.333" y2="6.99967" stroke="#00ACA0" stroke-width="0.666667" stroke-linecap="round"/>
<line x1="5.66634" y1="8.99967" x2="10.333" y2="8.99967" stroke="#00ACA0" stroke-width="0.666667" stroke-linecap="round"/>
</svg>
