<svg width="16" height="16" viewBox="0 0 16 16" fill="none" xmlns="http://www.w3.org/2000/svg">
<path d="M2.33333 6.66634C2.33333 6.11406 2.78105 5.66634 3.33333 5.66634H12.6667C13.219 5.66634 13.6667 6.11406 13.6667 6.66634V9.33301C13.6667 9.5171 13.5174 9.66634 13.3333 9.66634H2.66667C2.48257 9.66634 2.33333 9.5171 2.33333 9.33301V6.66634Z" stroke="#00ACA0" stroke-width="0.666667"/>
<path d="M3.66634 8.66667C3.66634 8.48257 3.81558 8.33333 3.99967 8.33333H6.66634C6.85044 8.33333 6.99967 8.48257 6.99967 8.66667V9.33333C6.99967 9.51743 6.85044 9.66667 6.66634 9.66667H3.99967C3.81558 9.66667 3.66634 9.51743 3.66634 9.33333V8.66667Z" stroke="#00ACA0" stroke-width="0.666667"/>
<path d="M9.00033 8.66667C9.00033 8.48257 9.14956 8.33333 9.33366 8.33333H12.0003C12.1844 8.33333 12.3337 8.48257 12.3337 8.66667V9.33333C12.3337 9.51743 12.1844 9.66667 12.0003 9.66667H9.33366C9.14956 9.66667 9.00033 9.51743 9.00033 9.33333V8.66667Z" stroke="#00ACA0" stroke-width="0.666667"/>
<rect x="1.00033" y="9.66634" width="14" height="2.66667" rx="0.333333" stroke="#00ACA0" stroke-width="0.666667"/>
<line x1="3.00033" y1="12.3333" x2="3.00033" y2="13.6667" stroke="#00ACA0" stroke-width="0.666667" stroke-linecap="round"/>
<line x1="13.0003" y1="12.3333" x2="13.0003" y2="13.6667" stroke="#00ACA0" stroke-width="0.666667" stroke-linecap="round"/>
</svg>
