<svg width="24" height="24" viewBox="0 0 24 24" fill="none" xmlns="http://www.w3.org/2000/svg">
<path fill-rule="evenodd" clip-rule="evenodd" d="M3 9C3 8.44772 3.44772 8 4 8H7.38197C7.76074 8 8.107 7.786 8.27639 7.44721L8.72361 6.55279C8.893 6.214 9.23926 6 9.61803 6H14.382C14.7607 6 15.107 6.214 15.2764 6.55279L15.7236 7.44721C15.893 7.786 16.2393 8 16.618 8H20C20.5523 8 21 8.44772 21 9V18C21 18.5523 20.5523 19 20 19H4C3.44772 19 3 18.5523 3 18V9ZM15 13C15 14.6569 13.6569 16 12 16C10.3431 16 9 14.6569 9 13C9 11.3431 10.3431 10 12 10C13.6569 10 15 11.3431 15 13ZM16.5 11C16.2239 11 16 11.2239 16 11.5C16 11.7761 16.2239 12 16.5 12H18.5C18.7761 12 19 11.7761 19 11.5C19 11.2239 18.7761 11 18.5 11H16.5Z" fill="#4FC3F7"/>
</svg>
