<svg width="40" height="40" viewBox="0 0 40 40" fill="none" xmlns="http://www.w3.org/2000/svg">
<circle cx="20" cy="20" r="20" fill="#F5F5F5"/>
<rect x="11.5" y="14.5" width="17" height="3" rx="1.5" stroke="#757575"/>
<path d="M13.9546 17.5H26.0455V26.8182C26.0455 27.747 25.2925 28.5 24.3637 28.5H15.6364C14.7076 28.5 13.9546 27.747 13.9546 26.8182V17.5Z" stroke="#757575"/>
<path d="M23.438 14.5H16.6184C16.7897 13.9291 17.115 13.2868 17.579 12.7403C18.1995 12.0097 19.0225 11.5 20 11.5C20.9836 11.5 21.8567 12.0157 22.4995 12.7468C22.9912 13.306 23.311 13.9491 23.438 14.5Z" stroke="#757575"/>
<line x1="17.125" y1="20.5" x2="17.125" y2="25.125" stroke="#757575" stroke-linecap="round"/>
<line x1="19.9375" y1="20.5" x2="19.9375" y2="25.125" stroke="#757575" stroke-linecap="round"/>
<line x1="22.75" y1="20.5" x2="22.75" y2="25.125" stroke="#757575" stroke-linecap="round"/>
</svg>
