<svg width="16" height="16" viewBox="0 0 16 16" fill="none" xmlns="http://www.w3.org/2000/svg">
<path d="M6.12546 3.20793C6.12546 2.8371 6.23542 2.47461 6.44144 2.16628C6.64746 1.85795 6.94028 1.61764 7.28288 1.47573C7.62547 1.33382 8.00246 1.29669 8.36616 1.36903C8.72986 1.44138 9.06393 1.61995 9.32615 1.88216C9.58836 2.14437 9.76693 2.47845 9.83927 2.84215C9.91162 3.20585 9.87449 3.58283 9.73258 3.92543C9.59067 4.26803 9.35036 4.56085 9.04203 4.76687C8.7337 4.97289 8.3712 5.08285 8.00038 5.08285C7.50312 5.08285 7.02623 4.88531 6.67461 4.5337C6.32299 4.18208 6.12546 3.70519 6.12546 3.20793ZM12.7566 3.24348C12.6792 3.16608 12.5874 3.10468 12.4863 3.06278C12.3852 3.02089 12.2768 2.99932 12.1674 2.99932C12.0579 2.99932 11.9496 3.02089 11.8485 3.06278C11.7474 3.10468 11.6555 3.16608 11.5782 3.24348L9.32165 5.49999H6.67911L4.42324 3.24348C4.26688 3.08713 4.05483 2.9993 3.83371 2.9993C3.6126 2.9993 3.40054 3.08713 3.24419 3.24348C3.08784 3.39984 3 3.61189 3 3.83301C3 4.05412 3.08784 4.26618 3.24419 4.42253L5.70895 6.88666V13.8333C5.70912 14.0542 5.79694 14.266 5.95312 14.4222C6.10931 14.5784 6.32109 14.6662 6.54197 14.6663H6.95847C7.17946 14.6663 7.39141 14.5786 7.54773 14.4224C7.70405 14.2662 7.79196 14.0543 7.79212 13.8333V10.9165H8.20673V13.8333C8.20681 13.9429 8.2285 14.0514 8.27055 14.1526C8.3126 14.2538 8.37419 14.3457 8.4518 14.4231C8.5294 14.5004 8.6215 14.5617 8.72282 14.6035C8.82414 14.6452 8.9327 14.6666 9.04228 14.6663H9.45879C9.67978 14.6663 9.89172 14.5786 10.048 14.4224C10.2044 14.2662 10.2923 14.0543 10.2924 13.8333V6.88666L12.7566 4.42253C12.8341 4.34516 12.8956 4.25327 12.9375 4.15211C12.9795 4.05095 13.001 3.94252 13.001 3.83301C13.001 3.7235 12.9795 3.61506 12.9375 3.51391C12.8956 3.41275 12.8341 3.32086 12.7566 3.24348Z" fill="#00ACA0"/>
</svg>
