<svg width="24" height="24" viewBox="0 0 24 24" fill="none" xmlns="http://www.w3.org/2000/svg">
<path d="M18.9596 3.61771C18.9114 3.5625 18.8308 3.54271 18.7603 3.56562C18.5611 3.63229 18.3462 3.66563 18.119 3.66563C17.0321 3.66563 16.149 2.84271 16.149 1.83229C16.149 1.22396 16.4714 0.657292 17.012 0.316667C17.0736 0.278125 17.1027 0.208333 17.0859 0.141667C17.0691 0.075 17.0109 0.025 16.937 0.0145833C16.8531 0.00416667 16.7702 0 16.6863 0C15.2044 0 14 1.12083 14 2.5C14 3.87917 15.2044 5 16.6863 5C17.6265 5 18.4816 4.55521 18.9741 3.81042C19.0133 3.75 19.0077 3.67292 18.9596 3.61771Z" fill="#757575"/>
<g clip-path="url(#clip0)">
<path d="M13.6165 13.3448L17.95 8.0588L18.9383 6.88822C19.003 6.80913 19.0185 6.70103 18.9771 6.60612C18.9357 6.51385 18.8426 6.45321 18.7417 6.45321H8.77073L8.07478 5.59637C7.98423 5.483 7.82124 5.46718 7.70999 5.56209C7.59874 5.65437 7.58322 5.82046 7.67636 5.93383L8.09807 6.45321H6.81483C6.71393 6.45321 6.62338 6.51385 6.5794 6.60612C6.53801 6.6984 6.55094 6.80913 6.61562 6.88822L7.59098 8.0588L11.9271 13.3448C11.9866 13.416 12.0538 13.4793 12.1263 13.5347V17.3048L10.8405 18.0904C10.6516 18.2038 10.5662 18.4253 10.6231 18.6414C10.6826 18.855 10.8663 19 11.0862 19H14.4677C14.6876 19 14.8713 18.855 14.9308 18.6414C14.9903 18.4279 14.9023 18.2064 14.7134 18.0904L13.4276 17.3048V13.5241C13.4975 13.4714 13.5596 13.4134 13.6165 13.3448ZM18.1776 6.9805L17.6343 7.62642H9.7228L9.19761 6.9805H18.1776ZM8.52753 6.9805L9.05273 7.62642H7.9092L7.37366 6.9805H8.52753ZM8.34126 8.15371H9.47961L11.1173 10.1732C10.9828 10.3578 10.9025 10.5871 10.9025 10.8323C10.9025 11.444 11.3889 11.9396 11.9892 11.9396C12.1599 11.9396 12.3203 11.9001 12.4626 11.8289L13.1094 12.6251C13.1611 12.6884 13.2336 12.72 13.3086 12.72C13.3655 12.72 13.425 12.6989 13.4742 12.6594C13.5854 12.5671 13.601 12.401 13.5078 12.2876L12.861 11.4914C12.9956 11.3069 13.0758 11.0775 13.0758 10.8323C13.0758 10.2207 12.5894 9.72502 11.9892 9.72502C11.821 9.72502 11.6606 9.76457 11.5157 9.83575L10.1497 8.15371H17.1997L13.2181 13.0074C13.1094 13.1392 12.9438 13.2183 12.7757 13.2209C12.6023 13.2236 12.4341 13.1418 12.3229 13.0074L8.34126 8.15371ZM11.9892 11.4123C11.6761 11.4123 11.42 11.1513 11.42 10.8323C11.42 10.5133 11.6761 10.2523 11.9892 10.2523C12.3022 10.2523 12.5583 10.5133 12.5583 10.8323C12.5583 11.1513 12.3022 11.4123 11.9892 11.4123ZM12.9128 13.7377V17.4524C12.9128 17.5447 12.9593 17.6317 13.0395 17.6791L14.3357 18.4727H11.2208L12.5169 17.6791C12.5946 17.6317 12.6437 17.5447 12.6437 17.4524V13.7403C12.7317 13.7509 12.8248 13.7509 12.9128 13.7377Z" fill="#757575"/>
<path d="M14.4397 19H11.1135C10.8514 19 10.63 18.8261 10.5587 18.5691C10.49 18.3121 10.5918 18.0473 10.8158 17.9097L12.0297 17.1673V13.5668C11.9661 13.5148 11.9075 13.4577 11.8566 13.3954L7.58886 8.18283L6.63961 7.03804C6.55054 6.9316 6.53018 6.77844 6.58871 6.65124C6.64725 6.52404 6.77449 6.44098 6.91191 6.44098H7.95787L7.68047 6.09572C7.55577 5.94256 7.57613 5.71152 7.72883 5.58432C7.80263 5.52202 7.89424 5.49347 7.9884 5.50125C8.08257 5.51164 8.16909 5.55577 8.23017 5.63105L8.88421 6.43578H18.6439C18.7838 6.43578 18.9085 6.51885 18.9671 6.64865C19.0256 6.77844 19.0053 6.92901 18.9136 7.03804L17.9415 8.19062L13.6788 13.3954C13.6304 13.4525 13.577 13.507 13.521 13.5564V17.1699L14.7349 17.9123C14.9589 18.0499 15.0632 18.3147 14.9945 18.5717C14.9258 18.8261 14.7018 19 14.4397 19ZM7.77718 8.08678L12.017 13.263C12.0679 13.3253 12.1289 13.3824 12.1951 13.4318L12.2384 13.4629V17.2867L10.9252 18.0888C10.7802 18.1771 10.714 18.3484 10.7572 18.5146C10.8031 18.6807 10.9456 18.7923 11.1135 18.7923H14.4397C14.6077 18.7923 14.7527 18.6807 14.7985 18.5146C14.8443 18.3484 14.7756 18.1771 14.6306 18.0888L13.3174 17.2867V13.4525L13.3581 13.4214C13.4192 13.3747 13.4752 13.3201 13.5235 13.263L17.7888 8.05823L18.7584 6.90305C18.7966 6.85632 18.8067 6.79142 18.7813 6.73691C18.7559 6.6824 18.7024 6.64605 18.6413 6.64605H8.7875L8.07239 5.76604C8.04694 5.73489 8.00876 5.71412 7.96805 5.71152C7.92733 5.70633 7.88661 5.71931 7.85607 5.74787C7.7899 5.80238 7.78227 5.90103 7.83571 5.96592L8.38795 6.64865H6.91191C6.85338 6.64865 6.79739 6.68499 6.77449 6.73951C6.74904 6.79402 6.75922 6.85892 6.79739 6.90564L7.77718 8.08678ZM14.6789 18.4808H10.8769L12.4674 17.5074C12.5132 17.4788 12.5412 17.4269 12.5412 17.375V13.6005L12.6557 13.6135C12.7372 13.6239 12.8186 13.6213 12.8975 13.6109L13.012 13.5953V17.3724C13.012 17.4269 13.04 17.4788 13.0858 17.5048L14.6789 18.4808ZM11.6123 18.2731H13.9409L12.9815 17.6865C12.8746 17.6216 12.8084 17.5022 12.8084 17.375V13.8289C12.7881 13.8289 12.7677 13.8289 12.7448 13.8289V17.375C12.7448 17.5022 12.6786 17.6216 12.5718 17.6865L11.6123 18.2731ZM12.7703 13.3098C12.5718 13.3098 12.3783 13.2163 12.2511 13.0631L8.19709 8.11274H9.58151L11.2739 10.1999L11.2255 10.2648C11.1008 10.4361 11.0346 10.6386 11.0346 10.854C11.0346 11.3992 11.4673 11.8405 12.0017 11.8405C12.1493 11.8405 12.2918 11.8067 12.4216 11.7418L12.4929 11.7055L13.18 12.5518C13.208 12.5881 13.2512 12.6089 13.2971 12.6089C13.3327 12.6089 13.3658 12.5959 13.3938 12.5725C13.4243 12.5466 13.4447 12.5076 13.4497 12.4661C13.4548 12.4246 13.4421 12.383 13.4141 12.3519L12.727 11.5056L12.7754 11.4407C12.9 11.2694 12.9662 11.0669 12.9662 10.854C12.9662 10.3115 12.5336 9.86758 11.9992 9.86758C11.8516 9.86758 11.7116 9.90133 11.5792 9.96622L11.508 10.0026L9.97597 8.11274H17.346L13.2894 13.0631C13.1647 13.2163 12.9713 13.3098 12.7754 13.3098C12.7754 13.3098 12.7728 13.3098 12.7703 13.3098ZM11.6378 11.9884L12.4063 12.9282C12.4954 13.0372 12.6303 13.1021 12.7677 13.1021H12.7703C12.9077 13.1021 13.0426 13.0372 13.1291 12.9282L13.2258 12.8087C13.1444 12.7932 13.0706 12.749 13.0171 12.6841L12.4318 11.9625C12.2944 12.0196 12.1468 12.0481 11.9966 12.0481C11.8745 12.0481 11.7523 12.0274 11.6378 11.9884ZM12.9866 11.4978L13.5719 12.2195C13.5974 12.2506 13.6152 12.2844 13.6304 12.3207L16.9108 8.31782H10.4086L11.564 9.74298C11.7014 9.68587 11.849 9.65731 11.9992 9.65731C12.6456 9.65731 13.1698 10.1921 13.1698 10.8514C13.1724 11.0851 13.1087 11.3057 12.9866 11.4978ZM8.63226 8.32042L10.8412 11.0176C10.8336 10.9657 10.8311 10.9111 10.8311 10.854C10.8311 10.623 10.8947 10.4023 11.0168 10.2102L9.4848 8.32042H8.63226ZM12.0017 11.529C11.6378 11.529 11.34 11.2252 11.34 10.854C11.34 10.4828 11.6378 10.1791 12.0017 10.1791C12.3656 10.1791 12.6634 10.4828 12.6634 10.854C12.6634 11.2252 12.3656 11.529 12.0017 11.529ZM12.0017 10.3868C11.7498 10.3868 11.5436 10.597 11.5436 10.854C11.5436 11.111 11.7498 11.3213 12.0017 11.3213C12.2536 11.3213 12.4598 11.111 12.4598 10.854C12.4598 10.597 12.2536 10.3868 12.0017 10.3868ZM17.6005 7.80123H9.72402L9.03945 6.95756H18.3105L17.6005 7.80123ZM9.81818 7.59356H17.5063L17.8651 7.16523H9.47208L9.81818 7.59356ZM9.32702 7.80123H7.94005L7.24021 6.95756H8.64244L9.32702 7.80123ZM8.03421 7.59356H8.89439L8.54828 7.16523H7.68047L8.03421 7.59356Z" fill="#757575"/>
</g>
<defs>
<clipPath id="clip0">
<rect width="14" height="15" fill="white" transform="translate(5 4)"/>
</clipPath>
</defs>
</svg>
