<svg width="16" height="16" viewBox="0 0 16 16" fill="none" xmlns="http://www.w3.org/2000/svg">
<path d="M2.54309 5.4341C2.57508 5.24217 2.76397 5.11832 2.95273 5.16552L4.75714 5.61662C4.91638 5.65643 5.08297 5.65643 5.24221 5.61662L7.04662 5.16552C7.23538 5.11832 7.42427 5.24217 7.45626 5.4341L8.20817 9.94553C8.24203 10.1487 8.08535 10.3337 7.87937 10.3337H2.11998C1.914 10.3337 1.75732 10.1487 1.79118 9.94553L2.54309 5.4341Z" stroke="#00ACA0" stroke-width="0.666667"/>
<path d="M4 7.99967L5 5.33301L6 7.99967L5 8.66634L4 7.99967Z" fill="#00ACA0"/>
<circle cx="4.99967" cy="2.99967" r="1.33333" stroke="#00ACA0" stroke-width="0.666667"/>
<line x1="1.00033" y1="10.3337" x2="15.0003" y2="10.3337" stroke="#00ACA0" stroke-width="0.666667" stroke-linecap="round"/>
<path d="M1.75744 10.708C1.73257 10.5091 1.8877 10.3333 2.0882 10.3333H13.9112C14.1117 10.3333 14.2668 10.5091 14.2419 10.708L13.7419 14.708C13.7211 14.8748 13.5793 15 13.4112 15H2.5882C2.42009 15 2.27829 14.8748 2.25744 14.708L1.75744 10.708Z" stroke="#00ACA0" stroke-width="0.666667"/>
<path d="M10 10C10 8.89543 10.8954 8 12 8C13.1046 8 14 8.89543 14 10H10Z" fill="#00ACA0"/>
<path d="M12 8.33366V7.66699" stroke="#00ACA0" stroke-width="0.666667" stroke-linecap="round"/>
<path d="M11.9997 13.667H9.33301" stroke="#00ACA0" stroke-width="0.666667" stroke-linecap="round"/>
</svg>
