<svg width="24" height="24" viewBox="0 0 24 24" fill="none" xmlns="http://www.w3.org/2000/svg">
<path d="M14 17.5V6C14 4.34315 15.3431 3 17 3V3C18.6569 3 20 4.34315 20 6V8.17241" stroke="#757575" stroke-linecap="round"/>
<path d="M8 17V6C8 4.34315 9.34315 3 11 3H11.5C12.8807 3 14 4.11929 14 5.5V5.5V8" stroke="#757575"/>
<path d="M3 16.7812C4.125 16.7812 4.125 17.9062 5.25 17.9062C6.375 17.9062 6.375 16.7812 7.5 16.7812C8.625 16.7812 8.625 17.9062 9.75 17.9062C10.875 17.9062 10.875 16.7812 12 16.7812C13.125 16.7812 13.125 17.9062 14.25 17.9062C15.375 17.9062 15.375 16.7812 16.5 16.7812C17.625 16.7812 17.625 17.9062 18.75 17.9062C19.875 17.9062 19.875 16.7812 21 16.7812" stroke="#757575" stroke-linecap="round"/>
<path d="M3 19.5938C4.125 19.5938 4.125 20.7188 5.25 20.7188C6.375 20.7188 6.375 19.5938 7.5 19.5938C8.625 19.5938 8.625 20.7188 9.75 20.7188C10.875 20.7188 10.875 19.5938 12 19.5938C13.125 19.5938 13.125 20.7188 14.25 20.7188C15.375 20.7188 15.375 19.5938 16.5 19.5938C17.625 19.5938 17.625 20.7188 18.75 20.7188C19.875 20.7188 19.875 19.5938 21 19.5938" stroke="#757575" stroke-linecap="round"/>
<line x1="8" y1="10.5" x2="14" y2="10.5" stroke="#757575"/>
<line x1="8" y1="13.5" x2="14" y2="13.5" stroke="#757575"/>
</svg>
