<svg width="16" height="16" viewBox="0 0 16 16" fill="none" xmlns="http://www.w3.org/2000/svg">
<path d="M4.66699 10.4993H12.167V10.8327H4.66699C4.38655 10.8327 4.15049 10.6983 4.00218 10.4993H4.66699ZM4.22888 9.75839L3.90871 10.3405C3.80718 10.1152 3.80299 9.84323 3.93871 9.59315C3.93894 9.59273 3.93917 9.5923 3.9394 9.59188L4.83783 7.96808L4.96204 7.74357L4.85209 7.51174L2.45209 2.45174L2.31656 2.16602H2.00033H1.16699V1.83268H2.53048L5.23506 7.5466L5.37048 7.83268H5.68699H10.367H10.6623L10.8048 7.57412L13.1373 3.34434L13.4274 3.50353L11.0957 7.73817L11.0953 7.73893C10.9549 7.99491 10.6813 8.16602 10.367 8.16602H5.40033H5.10469L4.96222 8.42506L4.22888 9.75839ZM8.66699 3.49935H8.16699V3.99935V5.49935H7.83366V3.99935V3.49935H7.33366H5.83366V3.16602H7.33366H7.83366V2.66602V1.16602H8.16699V2.66602V3.16602H8.66699H10.167V3.49935H8.66699ZM3.84033 13.3327C3.84033 12.8722 4.21306 12.4993 4.66699 12.4993C5.12418 12.4993 5.50033 12.8755 5.50033 13.3327C5.50033 13.7899 5.12418 14.166 4.66699 14.166C4.21306 14.166 3.84033 13.7931 3.84033 13.3327ZM10.507 13.3327C10.507 12.8722 10.8797 12.4993 11.3337 12.4993C11.7908 12.4993 12.167 12.8755 12.167 13.3327C12.167 13.7899 11.7908 14.166 11.3337 14.166C10.8797 14.166 10.507 13.7931 10.507 13.3327Z" stroke="#00ACA0"/>
</svg>
