<svg width="32" height="32" viewBox="0 0 32 32" fill="none" xmlns="http://www.w3.org/2000/svg">
<path d="M26.3079 16.0859L26.0145 16.4907C26.5776 16.8988 27.0663 17.3964 27.4793 17.9568C27.507 17.9961 27.5136 18.0457 27.4923 18.0958L26.97 19.1934L26.8712 19.401L26.9646 19.6111C27.0505 19.8047 27.1242 19.9716 27.1783 20.134L27.2554 20.3655L27.4855 20.4472L28.6412 20.8572L28.6411 20.8573L28.6501 20.8603C28.6906 20.8738 28.7169 20.9057 28.7227 20.9476L28.7226 20.9476L28.7236 20.9542C28.7831 21.3514 28.8133 21.6794 28.8336 22.0095C28.8328 22.3208 28.8041 22.6479 28.7449 23.0331L28.7449 23.0331L28.7441 23.0384C28.7383 23.0795 28.7048 23.1176 28.6711 23.1289L28.6711 23.1288L28.6622 23.132L27.5065 23.542L27.2718 23.6253L27.1969 23.8628C27.1442 24.0295 27.0719 24.1942 26.9901 24.3682L26.8894 24.5822L26.991 24.7958L27.5133 25.8933C27.5348 25.944 27.5279 25.9942 27.4994 26.0336L27.9048 26.3262M26.3079 16.0859L26.015 16.4911C25.9757 16.4627 25.9259 16.4558 25.8756 16.4772L24.7789 16.9998L24.5651 17.1017L24.3508 17.0008C24.177 16.919 24.0125 16.8466 23.8458 16.7939L23.6068 16.7184L23.5243 16.4817L23.1251 15.3357L23.1228 15.3292L23.1229 15.3292C23.1093 15.2883 23.0773 15.2622 23.0359 15.2565L23.0264 15.2552L23.0264 15.2552C22.2688 15.137 21.7216 15.1369 20.9522 15.2553L20.9438 15.2566L20.9438 15.2565C20.9023 15.2622 20.8703 15.2883 20.8567 15.3292L20.8537 15.3382L20.8537 15.3381L20.4439 16.4947L20.3624 16.7247L20.1308 16.802C19.9687 16.8561 19.8019 16.9298 19.6085 17.0158L19.3981 17.1094L19.1902 17.0103L18.0935 16.4877C18.0437 16.4666 17.9945 16.4731 17.9554 16.5007C17.3996 16.911 16.9111 17.3994 16.4896 17.9677C16.4621 18.0069 16.4556 18.0564 16.4768 18.1064L16.9991 19.2039L17.1007 19.4174L17.0001 19.6315C16.9183 19.8054 16.8459 19.9701 16.7933 20.1369L16.7183 20.3744L16.4837 20.4577L15.328 20.8677L15.319 20.8709L15.319 20.8708C15.2859 20.8818 15.253 20.9189 15.2463 20.9593C15.1954 21.3576 15.167 21.6794 15.167 21.9946C15.167 22.3095 15.1954 22.6306 15.256 23.0349L15.257 23.0415L15.257 23.0415C15.2627 23.0835 15.289 23.1154 15.3295 23.1289L15.3385 23.1319L15.3385 23.132L16.4942 23.542L16.71 23.6186L16.793 23.8321C16.8672 24.023 16.9366 24.2013 17.0151 24.378L17.1084 24.5882L17.0096 24.7958L16.4874 25.8933C16.4661 25.9434 16.4726 25.9931 16.5004 26.0323C16.9132 26.5925 17.4017 27.09 17.9647 27.4981C18.0039 27.5265 18.0537 27.5333 18.104 27.5119L19.2007 26.9893L19.4145 26.8874L19.6288 26.9883C19.8026 27.0702 19.9672 27.1426 20.1338 27.1952L20.3713 27.2703L20.4544 27.505L20.8642 28.6615L20.8673 28.6705L20.8673 28.6705C20.8809 28.7113 20.9128 28.7375 20.9543 28.7431L20.9628 28.7443L20.9627 28.7444C21.3538 28.8046 21.6849 28.8332 22.0003 28.8332C22.3158 28.8332 22.6469 28.8046 23.0379 28.7444L23.0464 28.7431L23.0464 28.7431C23.0878 28.7375 23.1198 28.7113 23.1334 28.6705L23.1364 28.6615L23.1365 28.6615L23.5462 27.505L23.6277 27.2749L23.8593 27.1977C24.0215 27.1436 24.1882 27.0699 24.3817 26.9838L24.5921 26.8903L24.7999 26.9893L25.8966 27.5119C25.9464 27.5331 25.9956 27.5266 26.0347 27.499C26.5947 27.0857 27.0919 26.5967 27.4997 26.0331L27.9048 26.3262M26.3079 16.0859C26.9172 16.5274 27.4425 17.0636 27.8838 17.6629L25.667 16.0228C25.8771 15.9282 26.1188 15.9492 26.3079 16.0859ZM27.9048 26.3262C28.0414 26.137 28.0624 25.8952 27.9678 25.6849L25.688 27.9664C25.8981 28.061 26.1398 28.04 26.3289 27.9033C26.9277 27.4617 27.4636 26.936 27.9048 26.3262Z" stroke="#757575"/>
<path d="M24.4331 22.0002C24.4331 23.3441 23.3436 24.4336 21.9997 24.4336C20.6558 24.4336 19.5664 23.3441 19.5664 22.0002C19.5664 20.6563 20.6558 19.5669 21.9997 19.5669C23.3436 19.5669 24.4331 20.6563 24.4331 22.0002Z" stroke="#757575"/>
<path d="M17.3271 29.9998V30.4998L17.5199 29.5385L17.3271 29.9998ZM18.6663 13.5651L18.7813 14.0517L19.1663 13.9607V13.5651H18.6663ZM18.3734 9.04029L18.0199 9.39385L18.0199 9.39385L18.3734 9.04029ZM11.4049 2.0717L11.0513 2.42526V2.42526L11.4049 2.0717ZM9.9606 2.10309L9.59202 1.76522L9.59202 1.76522L9.9606 2.10309ZM3.59585 9.04644L3.96443 9.38431L3.96443 9.38431L3.59585 9.04644ZM3.83301 28.9998V9.72217H2.83301V28.9998H3.83301ZM4.33301 29.4998C4.05687 29.4998 3.83301 29.276 3.83301 28.9998H2.83301C2.83301 29.8283 3.50458 30.4998 4.33301 30.4998V29.4998ZM17.3271 29.4998H4.33301V30.4998H17.3271V29.4998ZM17.5199 29.5385C14.5706 28.306 12.4997 25.3942 12.4997 21.9999H11.4997C11.4997 25.8115 13.826 29.0787 17.1344 30.4612L17.5199 29.5385ZM12.4997 21.9999C12.4997 18.1388 15.1796 14.9025 18.7813 14.0517L18.5514 13.0785C14.5086 14.0335 11.4997 17.6647 11.4997 21.9999H12.4997ZM18.1663 9.7474V13.5651H19.1663V9.7474H18.1663ZM18.0199 9.39385C18.1137 9.48761 18.1663 9.61479 18.1663 9.7474H19.1663C19.1663 9.34957 19.0083 8.96804 18.727 8.68674L18.0199 9.39385ZM11.0513 2.42526L18.0199 9.39385L18.727 8.68674L11.7584 1.71815L11.0513 2.42526ZM10.3292 2.44095C10.5215 2.23111 10.85 2.22397 11.0513 2.42526L11.7584 1.71815C11.1545 1.11428 10.1691 1.1357 9.59202 1.76522L10.3292 2.44095ZM3.96443 9.38431L10.3292 2.44095L9.59202 1.76522L3.22728 8.70858L3.96443 9.38431ZM3.83301 9.72217C3.83301 9.59707 3.8799 9.47652 3.96443 9.38431L3.22728 8.70858C2.97369 8.98523 2.83301 9.34688 2.83301 9.72217H3.83301ZM10.6663 12.4999C12.4152 12.4999 13.833 11.0821 13.833 9.33322H12.833C12.833 10.5298 11.863 11.4999 10.6663 11.4999V12.4999ZM7.49967 9.33322C7.49967 11.0821 8.91744 12.4999 10.6663 12.4999V11.4999C9.46972 11.4999 8.49967 10.5298 8.49967 9.33322H7.49967ZM10.6663 6.16656C8.91744 6.16656 7.49967 7.58432 7.49967 9.33322H8.49967C8.49967 8.13661 9.46972 7.16656 10.6663 7.16656V6.16656ZM13.833 9.33322C13.833 7.58432 12.4152 6.16656 10.6663 6.16656V7.16656C11.863 7.16656 12.833 8.13661 12.833 9.33322H13.833Z" fill="#757575"/>
<path d="M22 6.24564C17.873 2.49126 15.8095 3.11699 14.2618 4.99418C13.0237 6.49593 10.9946 7.49708 10.1348 7.49708C8.75942 7.66391 7.01003 7.40375 8.68759 5.5M20.4524 10C15.6561 2.43706 12.6435 2.44656 11 3.491" stroke="#757575" stroke-linecap="round"/>
</svg>
