<svg width="16" height="16" viewBox="0 0 16 16" fill="none" xmlns="http://www.w3.org/2000/svg">
<path fill-rule="evenodd" clip-rule="evenodd" d="M14.1888 6.53253C14.3894 6.59944 14.5326 6.77148 14.5613 6.98175C14.6186 7.36407 14.6472 7.67948 14.6663 7.9949C14.6663 8.31031 14.6377 8.63528 14.5804 9.00804C14.5517 9.20876 14.4085 9.39036 14.2079 9.45726L13.1573 9.83002C13.1 10.0116 13.0236 10.1837 12.9471 10.3462L13.4247 11.3497C13.5107 11.5409 13.4916 11.7607 13.3674 11.9328C12.9662 12.4871 12.4791 12.965 11.9347 13.3665C11.7628 13.4907 11.5431 13.5098 11.3521 13.4238L10.3492 12.9459C10.1773 13.0224 10.0054 13.0988 9.83349 13.1562L9.46099 14.2076C9.39413 14.4083 9.22222 14.5516 9.01209 14.5803C8.6396 14.6377 8.31486 14.6663 7.99967 14.6663C7.68449 14.6663 7.35975 14.6377 6.98726 14.5803C6.77713 14.5516 6.60521 14.4083 6.53836 14.2076L6.16586 13.1562C5.98439 13.0988 5.81247 13.0224 5.6501 12.9459L4.64724 13.4238C4.45622 13.5098 4.23654 13.4907 4.06462 13.3665C3.51066 12.965 3.0331 12.4776 2.63196 11.9328C2.50779 11.7607 2.48869 11.5409 2.57465 11.3497L3.05221 10.3462C2.9758 10.1741 2.90894 10.0021 2.84208 9.83002L1.79146 9.45726C1.59089 9.39036 1.44762 9.21831 1.41897 9.00804C1.36166 8.62572 1.33301 8.31031 1.33301 7.9949C1.33301 7.67948 1.36166 7.36407 1.40942 6.99131C1.43807 6.79059 1.58134 6.60899 1.78191 6.54209L2.83253 6.16933C2.88984 5.98773 2.96625 5.81568 3.04265 5.6532L2.5651 4.64961C2.47914 4.45846 2.49824 4.23862 2.62241 4.06658C3.0331 3.51222 3.51066 3.03432 4.05507 2.63289C4.22699 2.50864 4.44667 2.48952 4.63769 2.57554L5.64055 3.05344C5.81247 2.97697 5.98439 2.90051 6.15631 2.84316L6.52881 1.79179C6.59566 1.59107 6.76758 1.4477 6.97771 1.41903C7.72269 1.30433 8.26711 1.30433 9.00254 1.41903C9.21266 1.4477 9.38458 1.59107 9.45144 1.79179L9.81438 2.83361C9.99585 2.89095 10.1678 2.96742 10.3301 3.04388L11.333 2.56598C11.524 2.47996 11.7437 2.49908 11.9156 2.62333C12.4696 3.02476 12.9471 3.51222 13.3483 4.05702C13.4725 4.22907 13.4916 4.4489 13.4056 4.64006L12.928 5.64364C13.0044 5.81568 13.0809 5.98773 13.1382 6.15977L14.1888 6.53253ZM8 10.6662C9.47276 10.6662 10.6667 9.47226 10.6667 7.9995C10.6667 6.52674 9.47276 5.33283 8 5.33283C6.52724 5.33283 5.33333 6.52674 5.33333 7.9995C5.33333 9.47226 6.52724 10.6662 8 10.6662Z" fill="#00ACA0"/>
</svg>
