<svg width="14" height="14" viewBox="0 0 14 14" fill="none" xmlns="http://www.w3.org/2000/svg">
<path fill-rule="evenodd" clip-rule="evenodd" d="M13.1888 5.53253C13.3894 5.59944 13.5326 5.77148 13.5613 5.98175C13.6186 6.36407 13.6472 6.67948 13.6663 6.9949C13.6663 7.31031 13.6377 7.63528 13.5804 8.00804C13.5517 8.20876 13.4085 8.39036 13.2079 8.45726L12.1573 8.83002C12.1 9.01162 12.0236 9.18367 11.9471 9.34615L12.4247 10.3497C12.5107 10.5409 12.4916 10.7607 12.3674 10.9328C11.9662 11.4871 11.4791 11.965 10.9347 12.3665C10.7628 12.4907 10.5431 12.5098 10.3521 12.4238L9.34925 11.9459C9.17733 12.0224 9.00541 12.0988 8.83349 12.1562L8.46099 13.2076C8.39413 13.4083 8.22222 13.5516 8.01209 13.5803C7.6396 13.6377 7.31486 13.6663 6.99967 13.6663C6.68449 13.6663 6.35975 13.6377 5.98726 13.5803C5.77713 13.5516 5.60521 13.4083 5.53836 13.2076L5.16586 12.1562C4.98439 12.0988 4.81247 12.0224 4.6501 11.9459L3.64724 12.4238C3.45622 12.5098 3.23654 12.4907 3.06462 12.3665C2.51066 11.965 2.0331 11.4776 1.63196 10.9328C1.50779 10.7607 1.48869 10.5409 1.57465 10.3497L2.05221 9.34615C1.9758 9.17411 1.90894 9.00206 1.84208 8.83002L0.791461 8.45726C0.590887 8.39036 0.447621 8.21831 0.418968 8.00804C0.361661 7.62572 0.333008 7.31031 0.333008 6.9949C0.333008 6.67948 0.361661 6.36407 0.409417 5.99131C0.43807 5.79059 0.581336 5.60899 0.781909 5.54209L1.83253 5.16933C1.88984 4.98773 1.96625 4.81568 2.04265 4.6532L1.5651 3.64961C1.47914 3.45846 1.49824 3.23862 1.62241 3.06658C2.0331 2.51222 2.51066 2.03432 3.05507 1.63289C3.22699 1.50864 3.44667 1.48952 3.63769 1.57554L4.64055 2.05344C4.81247 1.97697 4.98439 1.90051 5.15631 1.84316L5.52881 0.791789C5.59566 0.591072 5.76758 0.447703 5.97771 0.419029C6.72269 0.304334 7.26711 0.304334 8.00254 0.419029C8.21266 0.447703 8.38458 0.591072 8.45144 0.791789L8.81438 1.83361C8.99585 1.89095 9.16777 1.96742 9.33014 2.04388L10.333 1.56598C10.524 1.47996 10.7437 1.49908 10.9156 1.62333C11.4696 2.02476 11.9471 2.51222 12.3483 3.05702C12.4725 3.22907 12.4916 3.4489 12.4056 3.64006L11.928 4.64364C12.0044 4.81568 12.0809 4.98773 12.1382 5.15977L13.1888 5.53253ZM7 9.66616C8.47276 9.66616 9.66667 8.47226 9.66667 6.9995C9.66667 5.52674 8.47276 4.33283 7 4.33283C5.52724 4.33283 4.33333 5.52674 4.33333 6.9995C4.33333 8.47226 5.52724 9.66616 7 9.66616Z" fill="#00ACA0"/>
</svg>
