<svg width="64" height="64" viewBox="0 0 64 64" fill="none" xmlns="http://www.w3.org/2000/svg">
<circle cx="32" cy="32" r="32" fill="#FF6A39"/>
<path d="M26.6667 21.9998L25.3333 18.6665H38.6667C38.4445 19.3332 37.8667 20.9332 37.3333 21.9998C36.8 23.0665 36.2222 23.3332 36 23.3332H28C27.4667 23.3332 26.8889 22.4443 26.6667 21.9998Z" fill="white"/>
<path fill-rule="evenodd" clip-rule="evenodd" d="M24 18.6665C23.1111 18.6665 21.3333 19.1998 21.3333 21.3332V42.6665C21.3333 43.5554 21.8667 45.3332 24 45.3332H40C41.1111 45.3332 42.6667 44.7998 42.6667 42.6665V21.3332C42.6667 20.4443 42.1334 18.6665 40 18.6665L38 23.3332C37.7778 23.7776 37.0667 24.6665 36 24.6665H28C27.5556 24.6665 26.5334 24.3998 26 23.3332C25.4667 22.2665 24.4445 19.7776 24 18.6665ZM27.3333 28C26.9651 28 26.6667 28.2985 26.6667 28.6667C26.6667 29.0349 26.9651 29.3333 27.3333 29.3333H36.6667C37.0349 29.3333 37.3333 29.0349 37.3333 28.6667C37.3333 28.2985 37.0349 28 36.6667 28H27.3333ZM26.6667 32.6667C26.6667 32.2985 26.9651 32 27.3333 32H36.6667C37.0349 32 37.3333 32.2985 37.3333 32.6667C37.3333 33.0349 37.0349 33.3333 36.6667 33.3333H27.3333C26.9651 33.3333 26.6667 33.0349 26.6667 32.6667ZM27.3333 36C26.9651 36 26.6667 36.2985 26.6667 36.6667C26.6667 37.0349 26.9651 37.3333 27.3333 37.3333H36.6667C37.0349 37.3333 37.3333 37.0349 37.3333 36.6667C37.3333 36.2985 37.0349 36 36.6667 36H27.3333Z" fill="white"/>
</svg>
