<svg width="64" height="64" viewBox="0 0 64 64" fill="none" xmlns="http://www.w3.org/2000/svg">
<circle cx="32" cy="32" r="32" fill="#00ACA0"/>
<path fill-rule="evenodd" clip-rule="evenodd" d="M45.3333 31.9998C45.3333 39.3636 39.3638 45.3332 32 45.3332C24.6362 45.3332 18.6667 39.3636 18.6667 31.9998C18.6667 24.636 24.6362 18.6665 32 18.6665C39.3638 18.6665 45.3333 24.636 45.3333 31.9998ZM32 40C29.7083 40 27.5556 39.2857 25.9583 38.0952C25.5417 37.7976 25.3333 37.381 25.3333 36.9643C25.3333 34.9405 27.2083 33.3333 29.5695 33.3333H34.4306C36.7917 33.3333 38.6667 34.9405 38.6667 36.9643C38.6667 37.4405 38.4583 37.8571 38.0417 38.1548C36.4445 39.2857 34.2917 40 32 40ZM32 32C34.2092 32 36 30.2091 36 28C36 25.7909 34.2092 24 32 24C29.7909 24 28 25.7909 28 28C28 30.2091 29.7909 32 32 32Z" fill="white"/>
</svg>
