<svg width="20" height="20" viewBox="0 0 20 20" fill="none" xmlns="http://www.w3.org/2000/svg">
<path d="M6.75715 7.29982L3.71218 7.80731C2.92228 7.93896 2.66066 8.94341 3.28598 9.44367L5.81516 11.467C6.10661 11.7002 6.22958 12.0855 6.12704 12.4444L5.02271 16.3096C4.80138 17.0842 5.6065 17.7524 6.3271 17.3921L9.58593 15.7627C9.84661 15.6323 10.1534 15.6323 10.4141 15.7627L13.6729 17.3921C14.3935 17.7524 15.1987 17.0842 14.9773 16.3096L13.873 12.4444C13.7705 12.0855 13.8934 11.7002 14.1849 11.467L16.7141 9.44367C17.3394 8.94341 17.0778 7.93896 16.2879 7.80731L13.2429 7.29982C12.9507 7.25112 12.6994 7.06554 12.5669 6.80058L10.8282 3.32309C10.487 2.64064 9.51307 2.64064 9.17185 3.32309L7.43311 6.80058C7.30062 7.06554 7.04936 7.25112 6.75715 7.29982Z" fill="#FFB822"/>
</svg>
