<?xml version="1.0" encoding="UTF-8"?>
<svg width="16px" height="14px" viewBox="0 0 16 14" version="1.1" xmlns="http://www.w3.org/2000/svg" xmlns:xlink="http://www.w3.org/1999/xlink">
    <title>D2B378D3-94B9-449F-8F5F-3C72F04B83E1</title>
    <g id="Page-1" stroke="none" stroke-width="1" fill="none" fill-rule="evenodd">
        <g id="HMS_Partner_1" transform="translate(-963.000000, -436.000000)" fill="#000000" fill-rule="nonzero">
            <g id="Group-30" transform="translate(173.000000, 387.000000)">
                <g id="Group-22" transform="translate(24.000000, 24.000000)">
                    <g id="Group-21-Copy-6" transform="translate(745.000000, 0.000000)">
                        <g id="Group-2" transform="translate(21.000000, 23.000000)">
                            <g id="briefcase-copy" transform="translate(0.000000, 2.000000)">
                                <path d="M15,2 L10.6666667,2 L10.6666667,1 C10.6666667,0.448666667 10.218,0 9.66666667,0 L6.33333333,0 C5.782,0 5.33333333,0.448666667 5.33333333,1 L5.33333333,2 L1,2 C0.448666667,2 0,2.44866667 0,3 L0,6 L16,6 L16,3 C16,2.44866667 15.5513333,2 15,2 Z M6,1 C6,0.816 6.14933333,0.666666667 6.33333333,0.666666667 L9.66666667,0.666666667 C9.85066667,0.666666667 10,0.816 10,1 L10,2 L6,2 L6,1 Z" id="Shape"></path>
                                <path d="M12.6666667,6.66666667 L12.6666667,8 L11.3333333,8 L11.3333333,6.66666667 L10.6666667,6.66666667 L5.33333333,6.66666667 L4.66666667,6.66666667 L4.66666667,8 L3.33333333,8 L3.33333333,6.66666667 L2.66666667,6.66666667 L0,6.66666667 L0,12.3333333 C0,12.8846667 0.448666667,13.3333333 1,13.3333333 L15,13.3333333 C15.5513333,13.3333333 16,12.8846667 16,12.3333333 L16,6.66666667 L13.3333333,6.66666667 L12.6666667,6.66666667 Z" id="Path"></path>
                            </g>
                        </g>
                    </g>
                </g>
            </g>
        </g>
    </g>
</svg>