<?xml version="1.0" encoding="UTF-8"?>
<svg width="110px" height="96px" viewBox="0 0 110 96" version="1.1" xmlns="http://www.w3.org/2000/svg" xmlns:xlink="http://www.w3.org/1999/xlink">
    <title>E9D055B1-085C-4682-932B-655499F47AA1</title>
    <g id="Page-1" stroke="none" stroke-width="1" fill="none" fill-rule="evenodd">
        <g id="HMS_Partner_1" transform="translate(-97.000000, -2148.000000)" fill-rule="nonzero">
            <g id="Group-19" transform="translate(0.000000, 2032.000000)">
                <g id="Group-16" transform="translate(78.000000, 97.000000)">
                    <g id="align-justify" transform="translate(19.000000, 19.000000)">
                        <path d="M0,11.7894737 L0,3.36842105 C0,1.508 1.50295089,0 3.35714286,0 L90.6428571,0 C92.4970491,0 94,1.508 94,3.36842105 L94,11.7894737 C94,13.6498947 92.4970491,15.1578947 90.6428571,15.1578947 L3.35714286,15.1578947 C1.50295089,15.1578947 0,13.6498947 0,11.7894737 Z" id="Path" fill="#00ADEF"></path>
                        <path d="M11.3571429,42.1052632 L98.6428571,42.1052632 C100.497049,42.1052632 102,40.5972632 102,38.7368421 L102,30.3157895 C102,28.4553684 100.497049,26.9473684 98.6428571,26.9473684 L11.3571429,26.9473684 C9.50295089,26.9473684 8,28.4553684 8,30.3157895 L8,38.7368421 C8,40.5972632 9.50295089,42.1052632 11.3571429,42.1052632 Z" id="Path" fill="#00ADEF"></path>
                        <path d="M3.35714286,96 L90.6428571,96 C92.4970491,96 94,94.492 94,92.6315789 L94,84.2105263 C94,82.3501053 92.4970491,80.8421053 90.6428571,80.8421053 L3.35714286,80.8421053 C1.50295089,80.8421053 0,82.3501053 0,84.2105263 L0,92.6315789 C0,94.492 1.50295089,96 3.35714286,96 Z" id="Path" fill="#333333"></path>
                        <path d="M19.3571429,69.0526316 L106.642857,69.0526316 C108.497049,69.0526316 110,67.5446316 110,65.6842105 L110,57.2631579 C110,55.4027368 108.497049,53.8947368 106.642857,53.8947368 L19.3571429,53.8947368 C17.5029509,53.8947368 16,55.4027368 16,57.2631579 L16,65.6842105 C16,67.5446316 17.5029509,69.0526316 19.3571429,69.0526316 Z" id="Path" fill="#333333"></path>
                    </g>
                </g>
            </g>
        </g>
    </g>
</svg>