<?xml version="1.0" encoding="UTF-8"?>
<svg width="12px" height="12px" viewBox="0 0 12 12" version="1.1" xmlns="http://www.w3.org/2000/svg" xmlns:xlink="http://www.w3.org/1999/xlink">
    <title>FB94BE88-622F-45A0-9D2F-0346374566A4</title>
    <g id="Page-1" stroke="none" stroke-width="1" fill="none" fill-rule="evenodd">
        <g id="HMS_Partner_1" transform="translate(-801.000000, -440.000000)" fill="#111111" fill-rule="nonzero">
            <g id="Group-30" transform="translate(173.000000, 387.000000)">
                <g id="Group-22" transform="translate(24.000000, 24.000000)">
                    <g id="Group-21-Copy-5" transform="translate(592.000000, 0.000000)">
                        <g id="Group-2" transform="translate(12.000000, 23.000000)">
                            <g id="coins-copy" transform="translate(0.000000, 6.000000)">
                                <path d="M0,9.49921875 L0,10.5 C0,11.3273438 2.015625,12 4.5,12 C6.984375,12 9,11.3273438 9,10.5 L9,9.49921875 C8.03203125,10.18125 6.2625,10.5 4.5,10.5 C2.7375,10.5 0.96796875,10.18125 0,9.49921875 Z M7.5,3 C9.984375,3 12,2.32734375 12,1.5 C12,0.67265625 9.984375,0 7.5,0 C5.015625,0 3,0.67265625 3,1.5 C3,2.32734375 5.015625,3 7.5,3 Z M0,7.040625 L0,8.25 C0,9.07734375 2.015625,9.75 4.5,9.75 C6.984375,9.75 9,9.07734375 9,8.25 L9,7.040625 C8.03203125,7.8375 6.26015625,8.25 4.5,8.25 C2.73984375,8.25 0.96796875,7.8375 0,7.040625 Z M9.75,7.2984375 C11.0929688,7.03828125 12,6.55546875 12,6 L12,4.99921875 C11.45625,5.38359375 10.6570312,5.64609375 9.75,5.8078125 L9.75,7.2984375 Z M4.5,3.75 C2.015625,3.75 0,4.5890625 0,5.625 C0,6.6609375 2.015625,7.5 4.5,7.5 C6.984375,7.5 9,6.6609375 9,5.625 C9,4.5890625 6.984375,3.75 4.5,3.75 Z M9.63984375,5.06953125 C11.0460938,4.81640625 12,4.31953125 12,3.75 L12,2.74921875 C11.1679688,3.3375 9.73828125,3.65390625 8.23359375,3.72890625 C8.925,4.0640625 9.43359375,4.5140625 9.63984375,5.06953125 Z" id="Shape"></path>
                            </g>
                        </g>
                    </g>
                </g>
            </g>
        </g>
    </g>
</svg>