<svg width="24" height="24" viewBox="0 0 24 24" fill="none" xmlns="http://www.w3.org/2000/svg">
<path d="M12 12C7.96857 12 4.63362 14.982 4.08053 18.8605C3.99143 19.4854 4.51167 20 5.14286 20H18.8571C19.4883 20 20.0086 19.4854 19.9195 18.8605C19.3664 14.982 16.0314 12 12 12Z" fill="white"/>
<path d="M1.57542 18.0866C2.01018 15.4838 4.27391 13.5 7 13.5C9.72609 13.5 11.9898 15.4838 12.4246 18.0866C12.4552 18.2699 12.3034 18.5 12 18.5H2C1.69658 18.5 1.5448 18.2699 1.57542 18.0866Z" stroke="white"/>
<path d="M11.5754 18.0866C12.0102 15.4838 14.2739 13.5 17 13.5C19.7261 13.5 21.9898 15.4838 22.4246 18.0866C22.4552 18.2699 22.3034 18.5 22 18.5H12C11.6966 18.5 11.5448 18.2699 11.5754 18.0866Z" stroke="white"/>
<circle cx="12" cy="9" r="4" fill="white"/>
<circle cx="7" cy="11" r="2.5" stroke="white"/>
<circle cx="17" cy="11" r="2.5" stroke="white"/>
</svg>
