<svg width="32" height="32" viewBox="0 0 32 32" fill="none" xmlns="http://www.w3.org/2000/svg">
<path d="M3.07504 17.9753L6.57061 16.6016C6.89271 16.4758 7.24811 16.6556 7.36466 17.0033L7.57687 17.6318L11.6258 16.0408C11.7275 15.9999 11.8377 15.9895 11.9446 16.0107L20.3713 17.6171C21.1348 17.7642 21.7908 18.2874 22.1453 19.0323L26.0102 17.5066C26.6277 17.2618 27.3107 17.2945 27.9061 17.5972C28.6611 17.9782 29.1891 18.7424 29.3126 19.6327C29.467 20.9217 28.7598 22.1502 27.6207 22.5715L14.8895 27.5743C14.8217 27.6015 14.7497 27.6152 14.6773 27.6152C14.6098 27.6152 14.5429 27.6031 14.479 27.5799L10.9241 26.284L10.546 26.4324L10.7579 27.0615C10.8745 27.4093 10.708 27.7933 10.3859 27.9191L6.88969 29.2925C6.82218 29.3196 6.75043 29.3337 6.67838 29.3333C6.58787 29.3337 6.49826 29.3121 6.41622 29.2706C6.26728 29.1954 6.15194 29.0598 6.09564 28.8931L2.70299 18.8287C2.58886 18.4822 2.75506 18.1011 3.07504 17.9753ZM10.7046 24.9473C10.8369 24.8953 10.9816 24.8937 11.1151 24.9424L14.6694 26.2382L27.1968 21.3152C27.7766 21.107 28.1462 20.4939 28.0878 19.8373C28.0284 19.3885 27.7626 19.0025 27.3815 18.812C27.0842 18.6603 26.7428 18.6437 26.4343 18.7666L22.4098 20.3474C22.4083 20.4707 22.3998 20.5935 22.3838 20.7155C22.1404 22.1672 20.8596 23.1363 19.5127 22.8876L12.5328 21.559L12.7486 20.2402L19.7253 21.5691C20.3979 21.6976 21.04 21.2149 21.1617 20.4893C21.1883 20.3135 21.1841 20.134 21.1487 19.9598C21.1399 19.9023 21.1257 19.8461 21.106 19.7918C20.954 19.3424 20.592 19.014 20.1557 18.9297L11.8944 17.3566L8.00069 18.8862L10.1213 25.178L10.7046 24.9473ZM7.0468 27.808L9.37779 26.8922L6.40866 18.0864L4.07827 19.0019L7.0468 27.808Z" fill="#757575"/>
<circle cx="18.6667" cy="9.33335" r="6" stroke="#757575" stroke-width="1.33333"/>
<path d="M19.4958 10.5706C19.4958 10.379 19.4336 10.2271 19.3093 10.115C19.1878 10.0005 18.9797 9.89531 18.6852 9.79951C18.3907 9.7037 18.1368 9.60907 17.9233 9.5156C17.7099 9.41979 17.5262 9.31113 17.3722 9.18963C17.2209 9.06578 17.102 8.9209 17.0155 8.75499C16.9318 8.58909 16.8899 8.39163 16.8899 8.16264C16.8899 7.76773 17.0358 7.44409 17.3276 7.19173C17.6194 6.93936 18.0071 6.79215 18.4907 6.75009V6H19.1391V6.7606C19.6173 6.81902 19.9915 6.99194 20.2617 7.27936C20.5319 7.56444 20.667 7.93481 20.667 8.39047H19.4958C19.4958 8.11006 19.4282 7.90092 19.2931 7.76306C19.1607 7.62285 18.9824 7.55275 18.7582 7.55275C18.5366 7.55275 18.3651 7.60766 18.2435 7.71749C18.1219 7.82498 18.0611 7.97453 18.0611 8.16614C18.0611 8.34373 18.1206 8.48627 18.2394 8.59376C18.3583 8.70125 18.5785 8.81108 18.9 8.92324C19.2242 9.0354 19.4904 9.14172 19.6984 9.2422C19.9064 9.34034 20.0821 9.45251 20.2252 9.57869C20.3684 9.70254 20.4779 9.84508 20.5535 10.0063C20.6292 10.1652 20.667 10.351 20.667 10.5636C20.667 10.9609 20.5238 11.2833 20.2374 11.531C19.951 11.7787 19.5566 11.9248 19.054 11.9692V12.6667H18.4096V11.9727C17.8558 11.9213 17.4262 11.7518 17.1209 11.4644C16.8183 11.1747 16.667 10.7903 16.667 10.3113H17.8382C17.8382 10.5893 17.9139 10.8031 18.0652 10.9527C18.2192 11.0999 18.4394 11.1735 18.7258 11.1735C18.9635 11.1735 19.1513 11.1198 19.2891 11.0123C19.4269 10.9024 19.4958 10.7552 19.4958 10.5706Z" fill="#757575"/>
</svg>
