<svg width="32" height="32" viewBox="0 0 32 32" fill="none" xmlns="http://www.w3.org/2000/svg">
<circle cx="16.0003" cy="16" r="12.6667" stroke="#757575" stroke-width="1.33333"/>
<path d="M20.8576 10.6666H15.3527C15.2237 10.6666 15.1028 10.7149 15.0141 10.8116L8.13903 17.6795C7.95366 17.8647 7.95366 18.1707 8.13903 18.3639L13.6359 23.855C13.7326 23.9516 13.8535 24 13.9744 24C14.0953 24 14.2243 23.9516 14.3129 23.855L21.188 16.9871C21.2767 16.8985 21.3331 16.7777 21.3331 16.6489V11.1497C21.3412 10.884 21.1236 10.6666 20.8576 10.6666ZM19.1328 14.9259C18.8587 15.1996 18.488 15.3526 18.1011 15.3526C17.7142 15.3526 17.3435 15.1996 17.0694 14.9259C16.5052 14.3623 16.5052 13.4364 17.0694 12.8647C17.3435 12.5909 17.7142 12.438 18.1011 12.438C18.488 12.438 18.8587 12.5909 19.1328 12.8647C19.705 13.4364 19.705 14.3623 19.1328 14.9259Z" fill="#757575"/>
</svg>
