<svg width="32" height="32" viewBox="0 0 32 32" fill="none" xmlns="http://www.w3.org/2000/svg">
<path d="M27.4297 20.6044L28.5629 21.0064C28.6185 21.3835 28.6474 21.6977 28.667 22.0144C28.6658 22.3074 28.6393 22.6171 28.584 22.983L27.4508 23.385L27.1378 23.4961L27.0379 23.8127C26.9887 23.9685 26.9203 24.125 26.8392 24.2974L26.705 24.5828L26.8406 24.8675L27.3551 25.9488C26.9638 26.4865 26.4879 26.9553 25.9513 27.3535L24.8716 26.839L24.5945 26.7069L24.3139 26.8317C24.1191 26.9184 23.9598 26.9886 23.8066 27.0397L23.4978 27.1427L23.3891 27.4495L22.9873 28.5836C22.6136 28.6402 22.2987 28.6666 22.0003 28.6666C21.702 28.6666 21.387 28.6402 21.0133 28.5836L20.6115 27.4495L20.5006 27.1365L20.184 27.0364C20.0284 26.9873 19.8721 26.9188 19.6998 26.8377L19.4141 26.7031L19.129 26.839L18.0492 27.3536C17.5119 26.9619 17.0436 26.4857 16.6457 25.9486L17.1601 24.8675L17.2918 24.5907L17.1674 24.3105C17.0908 24.138 17.0228 23.9633 16.9484 23.7719L16.8377 23.4872L16.5499 23.385L15.4168 22.983C15.3598 22.5971 15.3337 22.292 15.3337 21.9947C15.3337 21.699 15.3595 21.395 15.4071 21.0166L16.5394 20.6149L16.8523 20.5038L16.9522 20.1872C17.0014 20.0314 17.0698 19.8749 17.1509 19.7025L17.2851 19.4171L17.1496 19.1324L16.6352 18.0513C17.0404 17.5081 17.5081 17.0405 18.0388 16.6464L19.1185 17.1609L19.3957 17.293L19.6762 17.1682C19.8711 17.0816 20.0304 17.0113 20.1836 16.9602L20.4923 16.8572L20.601 16.5504L21.0028 15.4163C21.7341 15.3055 22.257 15.3057 22.9766 15.4162L23.3669 16.5366L23.4769 16.8522L23.7956 16.953C23.9512 17.0021 24.1076 17.0706 24.2798 17.1517L24.5655 17.2863L24.8506 17.1504L25.9305 16.6358C26.4677 17.0275 26.9361 17.5037 27.334 18.0408L26.8195 19.1219L26.6878 19.3987L26.8122 19.6789C26.8989 19.8739 26.9691 20.0334 27.0202 20.1867L27.123 20.4955L27.4297 20.6044Z" stroke="#757575" stroke-width="1.33333"/>
<circle cx="21.9997" cy="22.0001" r="2.26667" stroke="#757575" stroke-width="1.33333"/>
<path d="M17.3281 30V30.6667L17.5852 29.3849L17.3281 30ZM18.6673 13.5652L18.8206 14.214L19.334 14.0928V13.5652H18.6673ZM18.2768 8.9428L18.7482 8.4714L18.2768 8.9428ZM11.652 2.31802L11.1806 2.78942V2.78942L11.652 2.31802ZM9.72633 2.35986L10.2178 2.81034V2.81034L9.72633 2.35986ZM3.68445 8.951L4.17588 9.40149H4.17588L3.68445 8.951ZM4.00065 28.6667V9.85197H2.66732V28.6667H4.00065ZM4.66732 29.3333C4.29913 29.3333 4.00065 29.0348 4.00065 28.6667H2.66732C2.66732 29.7712 3.56275 30.6667 4.66732 30.6667V29.3333ZM17.3281 29.3333H4.66732V30.6667H17.3281V29.3333ZM17.5852 29.3849C14.6957 28.1774 12.6673 25.3248 12.6673 22H11.334C11.334 25.8812 13.7029 29.2076 17.0711 30.6151L17.5852 29.3849ZM12.6673 22C12.6673 18.218 15.2924 15.0475 18.8206 14.214L18.5141 12.9164C14.3977 13.8888 11.334 17.5858 11.334 22H12.6673ZM18.0007 9.88561V13.5652H19.334V9.88561H18.0007ZM17.8054 9.41421C17.9304 9.53923 18.0007 9.7088 18.0007 9.88561H19.334C19.334 9.35518 19.1233 8.84647 18.7482 8.4714L17.8054 9.41421ZM11.1806 2.78942L17.8054 9.41421L18.7482 8.4714L12.1234 1.84661L11.1806 2.78942ZM10.2178 2.81034C10.4742 2.53055 10.9122 2.52104 11.1806 2.78942L12.1234 1.84661C11.3183 1.04146 10.0043 1.07001 9.23489 1.90938L10.2178 2.81034ZM4.17588 9.40149L10.2178 2.81034L9.23489 1.90938L3.19301 8.50052L4.17588 9.40149ZM4.00065 9.85197C4.00065 9.68517 4.06317 9.52444 4.17588 9.40149L3.19301 8.50052C2.85489 8.86938 2.66732 9.35158 2.66732 9.85197H4.00065ZM10.6673 12.6668C12.5083 12.6668 14.0007 11.1744 14.0007 9.33349H12.6673C12.6673 10.4381 11.7719 11.3335 10.6673 11.3335V12.6668ZM7.33398 9.33349C7.33398 11.1744 8.82637 12.6668 10.6673 12.6668V11.3335C9.56275 11.3335 8.66732 10.4381 8.66732 9.33349H7.33398ZM10.6673 6.00015C8.82637 6.00015 7.33398 7.49254 7.33398 9.33349H8.66732C8.66732 8.22892 9.56275 7.33349 10.6673 7.33349V6.00015ZM14.0007 9.33349C14.0007 7.49254 12.5083 6.00015 10.6673 6.00015V7.33349C11.7719 7.33349 12.6673 8.22892 12.6673 9.33349H14.0007Z" fill="#757575"/>
<path d="M29.3337 8.32752C23.831 3.32168 21.0796 4.15599 19.0161 6.65891C17.3653 8.66124 14.6598 9.99611 13.5134 9.99611C11.6796 10.2185 9.34703 9.87167 11.5838 7.33333M27.2701 13.3333C20.8751 3.24942 16.8583 3.26208 14.667 4.65466" stroke="#757575" stroke-width="1.33333" stroke-linecap="round"/>
</svg>
